<svg width="210" xmlns="http://www.w3.org/2000/svg" viewBox="0 0 666.61 559.58"><defs><style>.cls-1{fill:#fff;}</style></defs><g id="Layer_2" data-name="Layer 2"><g id="Layer_4" data-name="Layer 4"><path class="cls-1" d="M168.12,527.58c-.88-.3-1.77-.6-2.65-.92-11.95-4.32-23.8-8.94-35.87-12.89-10.71-3.5-19.9-9.21-28.37-16.5-29.89-25.74-54.74-55.5-72.86-90.64A251.15,251.15,0,0,1,3.79,333,275,275,0,0,1,.23,275.94,248.13,248.13,0,0,1,17,196.55c12.05-31.37,29-59.94,49.48-86.47a361.22,361.22,0,0,1,46.13-49.63c27.63-24.53,58.78-42.94,94-54.22,6.61-2.12,13.32-4,20.05-5.66,2.56-.64,5.33-.41,8-.57l.11.57a12.18,12.18,0,0,1-1.35.68C201,12.41,171.47,29,145.72,51.79c-23.53,20.79-45.51,43.09-62.64,69.7a266.71,266.71,0,0,0-40.32,107.1A272.21,272.21,0,0,0,40,268.72c0,8.72,0,17.43,0,26.14a260.86,260.86,0,0,0,7.24,61c10.08,41.22,28.48,78.31,56.06,110.62a398.73,398.73,0,0,0,46,45.77c5.6,4.75,11.58,9.05,17.39,13.55l1.66,1.28Z"/><path class="cls-1" d="M432,.3a36.21,36.21,0,0,1,13.07,1.45c23.84,6.61,46.6,15.76,67.88,28.52a270.77,270.77,0,0,1,43,32c37.89,34.43,67.67,74.84,88.51,121.64a251.69,251.69,0,0,1,21.21,80.8,273.57,273.57,0,0,1-.21,47.89,251.52,251.52,0,0,1-20.6,80.21,271.68,271.68,0,0,1-37,60.59,314,314,0,0,1-48.8,49,54.56,54.56,0,0,1-15.53,8.89q-22.08,8-44.18,16a1.43,1.43,0,0,1-1.17-.07c.37-.3.72-.64,1.11-.92a273.65,273.65,0,0,0,38.27-32.61c10-10,20.09-19.91,29-30.93a267.75,267.75,0,0,0,51.7-102.33,261.92,261.92,0,0,0,8.37-66.17c0-9.11.06-18.23,0-27.34-.48-65.72-21.79-123.86-64.47-173.81C544.31,72.29,524.77,53,502.36,36.92A264.18,264.18,0,0,0,434.53,1.63c-.68-.24-1.35-.48-2-.74C432.38.84,432.31.67,432,.3Z"/><path class="cls-1" d="M612.56,280.33a267,267,0,0,1-66.75,183.11c-18.09,20.43-38.09,38.73-61.16,53.52A265.66,265.66,0,0,1,376,557.12a242.88,242.88,0,0,1-37,2.43c-9.51-.17-19,0-28.52-.57a258.66,258.66,0,0,1-82.66-18.6,266.44,266.44,0,0,1-87.55-57.21c-14.5-14.16-28-29.15-39.4-46a266.39,266.39,0,0,1-43.11-109A240.93,240.93,0,0,1,54.61,289c0-6.07,0-12.15,0-18.22A263.24,263.24,0,0,1,78.09,164.6,269.83,269.83,0,0,1,133.5,84.65C149.22,68.81,166.08,54.45,185,42.6A267.42,267.42,0,0,1,296,3.38c18.4-2.23,36.87-2.4,55.31-1.6A264.33,264.33,0,0,1,462.13,31.19a268.42,268.42,0,0,1,63.13,45.22c16.73,16,32,33.31,44.56,52.85a266.48,266.48,0,0,1,41,113.57A254.63,254.63,0,0,1,612.56,280.33ZM333.6,9.06c-6.79.25-13.58.4-20.36.78-4.62.27-9.24.78-13.84,1.32a263.12,263.12,0,0,0-77.12,21.3C182.09,50.43,148.49,77,121,111.2c-35.28,44-54.6,94.27-58.38,150.47a280.05,280.05,0,0,0,2.75,63.1,267.17,267.17,0,0,0,25.85,79.48c16.44,32.27,38.8,59.86,66.2,83.43a263.67,263.67,0,0,0,99.62,53.88c35.88,10.41,72.43,12.86,109.47,8.71A262.12,262.12,0,0,0,450.94,526a270.65,270.65,0,0,0,77.21-55.64,266,266,0,0,0,62.28-100.44c15.35-44.54,18.45-90.18,10.66-136.47C592,179.34,568,132.57,530,92.9A268.11,268.11,0,0,0,333.6,9.06Z"/><path class="cls-1" d="M333.52,11.48c148.57-1,269.08,120.57,269.42,268.44s-119.8,270.33-270,270C183.76,549.57,63.13,428,64.21,278.59,65.28,130.09,186.43,10.51,333.52,11.48Zm-.16,535.72C481.27,546.72,598.89,428.55,600,282.77A266,266,0,0,0,335.7,14.22c-148.92-1.15-267.88,118.51-268.59,265C66.4,427.12,185.31,546.65,333.36,547.2Z"/><path class="cls-1" d="M308.37,24.18h10.08a8.1,8.1,0,0,0,1.39.91A5.19,5.19,0,0,1,323,29c.17.69.39,1.36.56,2,.95.41,1.75.76,2.56,1.09a8.47,8.47,0,0,1,4.61,4.63,9.1,9.1,0,0,1,.68,3.73c0,.84-.24,1.79.59,2.42a1.76,1.76,0,0,0,.51-.08,6.84,6.84,0,0,0,.75-.58,16.78,16.78,0,0,1,7.6-3.86c2.81-.62,5.59-1.37,8.37-2.09a10.79,10.79,0,0,1,5.44-.3,3.79,3.79,0,0,0,3.38-.37c.07-.62.15-1.32.24-2a5.26,5.26,0,0,1,5.16-5,40.66,40.66,0,0,1,4.55.05c1.91.09,3.81.31,5.72.37,4.23.14,8.47-.24,12.68.48,3.78.64,7.55,1.22,11,3.06a7.43,7.43,0,0,1,3.25,3.07c1.23,2.32,2.43,4.65,3.78,7.24,1,.31,2.21.67,3.41,1.08,4,1.36,7.31,3.54,8.6,7.92a3.76,3.76,0,0,1-3.12,4.93,11.58,11.58,0,0,1-2.62-.16c-.79-.09-1.56-.29-2.34-.44-1.4,1-3.17,1.23-4.51,2.7.39,1.39.82,2.82,1.22,4.27a9.86,9.86,0,0,1,.64,2.76c-.07,2.39-.34,4.77-.57,7.15a4.54,4.54,0,0,1-.5,1.34,7.91,7.91,0,0,1-4.76,4.46,6.4,6.4,0,0,0-3,2.25,10.27,10.27,0,0,1-8.07,4,4,4,0,0,0-2.72.72,8.61,8.61,0,0,1-3.92,1.69c-1.64.37-3.29.68-4.93,1-1,.22-1.78.66-1.9,1.81.19.22.31.49.5.57,2.63,1,4.14,3.17,5.56,5.41a7.63,7.63,0,0,1,.1,8.59,20.46,20.46,0,0,0-1.35,2.53c-2,4.7-5.61,6-9.84,5.34-1.41-.22-2.8-.6-4.41-1-.53.57-1.14,1.18-1.72,1.81a19.16,19.16,0,0,1-2.06,2.33c-2.27,1.85-2.27,4.21-1.74,6.74.05.23.17.45.23.68.34,1.31.65,2.63,1,3.94.29,1.08.58,2.15.94,3.21s.26,2.2,1,3.18a7.07,7.07,0,0,0,2.86-1.82c2.64-2.28,4.4-5.27,6.41-8,3.38-4.61,8.38-6.47,13.37-8.42.15,0,.32,0,.47-.08l7.5-1.57a43.27,43.27,0,0,0,11.08-4.47,10.74,10.74,0,0,0,1.52-1.32,7.89,7.89,0,0,0-2.21-.28,13.87,13.87,0,0,0-2.91,1,22.54,22.54,0,0,1-9.94,2.29c-3.13,0-7.53-4.44-7.58-7.55-.07-3.37,1.6-5.86,3.65-8a85,85,0,0,1,8.31-7.55,48.37,48.37,0,0,1,7.28-5c4.12-2.24,8.88-2.41,13.35-3.53a5.12,5.12,0,0,1,1,0,7.66,7.66,0,0,0,1.67-.09c3.2-.86,5.8.24,8.13,2.34a2.73,2.73,0,0,0,.58.43,9.06,9.06,0,0,1,4.22,4.1c.13.26.57.37,1.17.72-.13-1.6-.23-2.84-.33-4.09s.28-2.72-.5-4.21c-2.45-.43-4.27-2.82-7.13-2.7a3.62,3.62,0,0,1-1.33-.5,11.3,11.3,0,0,1-4.95-3.56c-.95,0-1.75,0-2.53-.14a5.17,5.17,0,0,1-4.4-2.87c-1.8-3.91.1-7.56,4.4-8.14,3.75-.51,7.23-1.83,10.88-2.8.26-1.42.49-2.75.75-4.07.92-4.51,4.24-6.77,9.16-5.1.84.29,1.66.58,2.5.83,1.53.46,3.11.79,4.59,1.37a5.79,5.79,0,0,1,2.56,1.66c2.29,3,5.32,5.28,8.07,7.82a7.28,7.28,0,0,0,1.66.94c2.78,1.38,5.71,2.41,8.43,4,3,1.72,5.67,3.55,7.05,6.85a10.7,10.7,0,0,0,1.18,2.08,5.46,5.46,0,0,0,1.43,1.55,6.71,6.71,0,0,1,2.36,2.63c1.39,2.41,2.73,4.77,5.11,6.53s2.82,6.12,0,8.71a12.29,12.29,0,0,1-1.15.86A3.79,3.79,0,0,0,479.47,99a6.5,6.5,0,0,1-1.93,6.57,7.28,7.28,0,0,0-1.45,1.88c-.74,1.5-1.4,3-2,4.6a7,7,0,0,1-4.38,4.13,6.42,6.42,0,0,1-6.93-1.22c-2.07-1.85-3.23-4.16-2.37-7.07.27-.92.53-1.83.91-3.12a8.26,8.26,0,0,0-1.29-.86,7.07,7.07,0,0,1-4-5.08,3.11,3.11,0,0,0-3-2.57,8,8,0,0,1-5.28-2.51,2.83,2.83,0,0,0-1.43-.81c-2.57-.44-5.15-.78-8-1.19a30.7,30.7,0,0,0,2.47,3.63,19.14,19.14,0,0,1,3.85,10.14,8.69,8.69,0,0,0,1.13,3.82,8.22,8.22,0,0,1-.79,10.21c-1.78,2-3.38,4.26-6.07,5.27a18.93,18.93,0,0,0-1.61,1,25.44,25.44,0,0,1-2.39,1c-1.57.61-3.13.19-4.73,0-3.46-.32-6.26-1.53-8.23-4.58a5.87,5.87,0,0,0-4.84-2.47c-.37,2.3.61,4.17,1.06,6.32.95.22,1.85.49,2.77.65,2.54.45,4.79,1.32,6,3.84a3.11,3.11,0,0,0,3.06,1.9,4.57,4.57,0,0,1,3.08,1.13,6.07,6.07,0,0,1,1.91,7.51,16.66,16.66,0,0,0-.81,2.24c-.39,1.63-.68,3.28-1,4.92a6.45,6.45,0,0,1-2.71,4.09c-1.05.73-2.14,1.4-3.18,2.15a5.38,5.38,0,0,1-3.38,1c-.72,0-1.44,0-2.16,0-3.09.13-5.64-.83-7.39-3.54a3.5,3.5,0,0,0-4-1.61c-3.46.87-6.66,0-9.84-1.19a12.37,12.37,0,0,1-5.92-3.93,6.18,6.18,0,0,0-5.77-2.67,17.06,17.06,0,0,1-5.88-1c-1.14-.36-2.28-.73-3.45-1a7,7,0,0,0-1.89-.16c-1.51.05-3,.24-4.53.22a28.65,28.65,0,0,0-11.79,2.85,7,7,0,0,0-3.2,2.79,9.57,9.57,0,0,1-1.74,2.27c-2.63,2.2-5.28,4.4-8.06,6.41-2.34,1.68-4.41,3.66-6.59,5.51a9.42,9.42,0,0,0-1.84,2.49c-2.49,4.13-3.38,8.76-4,13.44a3.84,3.84,0,0,0,1.42,3.85,12.44,12.44,0,0,0,1.71,1.3,9,9,0,0,1,4.32,4.94,4.26,4.26,0,0,0,2.39,2.53c1.3.61,2.58,1.26,3.86,1.93,3,1.57,5.7,3.53,7.33,6.65a4.74,4.74,0,0,0,.67.77,16.09,16.09,0,0,1,2.11-1.18c.34-.14.82.08,1.5.17a7.56,7.56,0,0,1-.95,1.86c-1.49,1.49-1.35,3-.54,4.8a3.42,3.42,0,0,0,2.54,2.25c.86.19,1.72.41,2.57.63a28,28,0,0,1,9.64,4.68c3.51,2.61,6.19,6,8.92,9.31,2,2.46,3.82,5.12,5.79,7.63a12.22,12.22,0,0,0,2.4,2.31c1.93,1.4,4,2.6,5.91,4a36.47,36.47,0,0,1,7.75,7.44,4.85,4.85,0,0,0,2.69,1.91c2.85.78,5.46,2.3,8.47,2.55a2.54,2.54,0,0,1,.89.33c2.45,1.37,5.12,1,7.74.92a3.07,3.07,0,0,0,1.66-.84,15.37,15.37,0,0,0,4.34-5.65,32.79,32.79,0,0,1,2.24-4.22,10.78,10.78,0,0,1,4.71-4.3,30.66,30.66,0,0,0,4.52-2.67,10,10,0,0,0,3.82-5.38,12.42,12.42,0,0,1,4.16-6.57c.15-.12.16-.43.38-1.09a11.12,11.12,0,0,1-1.25-.81,18.56,18.56,0,0,1-2.13-1.92c-1.35-1.5-2.12-3.16-1.26-5.26a5.06,5.06,0,0,0,.17-2.1,5.52,5.52,0,0,1,3.2-5.63,17,17,0,0,0,2.56-1.28c2.56-1.86,5.36-1.92,8.25-1.26a8.28,8.28,0,0,1,6.92,8c.16,2,.91,2.7,2.95,2.41a7.55,7.55,0,0,1,4.82,1,23.74,23.74,0,0,1,5.23,3.67c3.51,3.3,4.46,7.4,4.67,11.88a2,2,0,0,1-.18.94c-1,2-2,4-3.11,5.91a4.48,4.48,0,0,1-1.72,1.25c-.9.51-1.84.94-2.77,1.41a14.49,14.49,0,0,1-.41,1.43c-1,2.45-2.08,4.91-4.27,6.52a24.53,24.53,0,0,1-7.95,3.85,11.94,11.94,0,0,1-4.24.63,83.58,83.58,0,0,1-8.74-1.38,7.56,7.56,0,0,1-3-1.38c-2.86-2.23-3.7-5.21-1.37-8.34.37-.49.71-1,1.05-1.48a3.43,3.43,0,0,0-3-1.6,9.59,9.59,0,0,0-5.86,1.78,13.77,13.77,0,0,0-5.25,6.67,16.39,16.39,0,0,1-5.38,7.48,4.23,4.23,0,0,0-.63.85,9.77,9.77,0,0,0,1.21.83c1.15.56,2.37,1,3.47,1.62a15.15,15.15,0,0,0,5.45,1.75,22.57,22.57,0,0,1,11.39,5.21,27.69,27.69,0,0,0,3,2c.74.47,1.5.91,2.23,1.4,3.12,2.07,5.3,5.05,7.61,7.9,2.7,3.32,4.39,7.24,6.21,11.05a40.29,40.29,0,0,0,5.24,8.55,6.07,6.07,0,0,0,4.75,2.38c1.59,0,3.19.05,4.79,0a6.23,6.23,0,0,0,6.12-5.08,11.09,11.09,0,0,0,.19-2.38c0-2.24.06-4.48,0-6.72-.13-5.5-.37-11-.45-16.51a26.79,26.79,0,0,1,2-10.29,55.05,55.05,0,0,1,5.8-10.18,18.4,18.4,0,0,0,3.16-8.43,55.5,55.5,0,0,0-.26-6.68c0-1.2,0-2.39.06-3.58.07-1.43.21-2.86.25-4.3a2.33,2.33,0,0,0-2-2.61,8.93,8.93,0,0,1-4.72-3.12c-1-1.14-2-2.26-2.92-3.48-3.83-5.23-1.18-12.57,3.61-14.5a27.29,27.29,0,0,0,3.39-1.77,10,10,0,0,1,5.49-1.37,5.67,5.67,0,0,0,1.08-.12c-.48-2.34-1-4.5-1.35-6.7a14.48,14.48,0,0,1,.23-6.64c.4-1.21.87-2.4,1.28-3.6a9.55,9.55,0,0,1,4.28-5.3c1.65-1,3.41-1.76,5.15-2.56a6.22,6.22,0,0,1,4.66-.39c1,.31,2,.45,3,.68,3.36.75,6.06,2.8,8.89,4.59.32.2.51.6.78.9,1.41,1.61,2.83,3.21,4.37,4.94.25-.47.45-.89.69-1.27a3.53,3.53,0,0,1,4.5-1.7,16.72,16.72,0,0,1,1.71.82c.33.14.68.21,1,.33.44-1.09-.18-1.67-.65-2.3s-1-1.25-1.44-1.9c-1-1.45-1.89-3-2.92-4.38s-2.24-2.91-3.36-4.36a6.27,6.27,0,0,1-1.46-5.58,5.05,5.05,0,0,0,0-1.12L531.35,155c-6.76,2.44-10.29-.51-11.23-7.29a7.42,7.42,0,0,1-.93-.79,24.55,24.55,0,0,1-3.08-3.64,6.63,6.63,0,0,1,5.4-10.15,15.42,15.42,0,0,1,6.69,1.59,26.51,26.51,0,0,0,3.68,1.66,3.9,3.9,0,0,1,1.27.64c1.46,1.1,3,2.15,4.33,3.37,2.24,2,4.19,4.42,7.08,5.63,4.63,3.78,8.13,8.35,9.72,14.19a4.37,4.37,0,0,0,2.38,3.09c2.78,1.27,4.74,3.48,6.64,5.74,2.3,2.74,3.11,6.12,3.52,9.52a19.93,19.93,0,0,1-.52,5.93,6.16,6.16,0,0,0,.59,4.16,12.05,12.05,0,0,1,.93,2.71c1.09,4.93.46,9.84-.15,14.76-.3,2.44-1.46,4.52-2.47,6.7a8.37,8.37,0,0,1-4.66,4.54,14,14,0,0,0-1.55.92c2.78,3.44,3.43,7.12,2.78,11.35a14,14,0,0,1-6,9.6c.26,2.46.31,4.62.73,6.72a11.14,11.14,0,0,1-1.67,8c-.18.32-.28.67-.54,1.3a6.28,6.28,0,0,0,2.47-1.87c.77-.67,1.52-1.37,2.35-2.12-.3-1.63-.64-3.19-.87-4.76a25.67,25.67,0,0,1-.38-4.27,6,6,0,0,1,6-6c1-.05,2.08,0,3.12-.05.73,0,1.46-.15,1.66-1a1.54,1.54,0,0,0-.12-.47,8.42,8.42,0,0,0-.63-.71,9.44,9.44,0,0,1-2.79-8.08,5,5,0,0,1,3.17-4.45c1.18-.47,2.42-.81,3.63-1.19,3.34-1,6.89.29,8.41,4.35a69.7,69.7,0,0,1,2,8.12,28.22,28.22,0,0,1,.47,3.32c.21,1.74.29,3.5.6,5.22a11.36,11.36,0,0,1,.07,4.5,8.37,8.37,0,0,0,.78,5.82v2.88c-.53.88-1,1.77-1.61,2.71.56,1,.29,2.43,1.61,3.05v2.4a4.21,4.21,0,0,0-.42,1.35,28.29,28.29,0,0,1-1,7.31,9.27,9.27,0,0,1-7.18,7.48c-.85.18-1.76.09-2.62.2a13,13,0,0,0-1.71.5,9.41,9.41,0,0,0,.9,1.58,16.51,16.51,0,0,1,3.78,8.16,28.52,28.52,0,0,0,1,4.43,18.75,18.75,0,0,1,1.05,10.09,29.18,29.18,0,0,1-1.56,6.48c-.59,1.39-1.19,2.76-1.8,4.18a11.54,11.54,0,0,1,1,1.41,29.79,29.79,0,0,1,2.63,5.31,16.41,16.41,0,0,1-.8,10.78c-.38,1-.7,2-1.09,2.92a3.38,3.38,0,0,0,.07,3c1.43,2.64,1.26,5.42.5,8.16a38.62,38.62,0,0,1-2.23,6.06,30.09,30.09,0,0,1-13.55,14c-3.55,1.88-8.1-1-7.74-4.79a6.34,6.34,0,0,0-.19-2.61c-.64-1.87-1.48-3.67-2.3-5.63a4.53,4.53,0,0,0-1.1,0,9.86,9.86,0,0,1-4.52-.05,8.61,8.61,0,0,0-1.9-.16c-4.18-.06-6.88-2.2-8.35-6a4.6,4.6,0,0,0-1.67-2.26,10.44,10.44,0,0,1-4.44-8.35,4.53,4.53,0,0,0-.4-2.08c-1.85-2.84-2.43-6.05-3-9.28-.14-.78-.26-1.6-1-2-1-.22-1.36.41-1.66,1.07-1.26,2.71-3.64,4.17-6.11,5.52a6.66,6.66,0,0,1-6.65,0c-1.63-.85-3.28-1.66-4.86-2.58a7.47,7.47,0,0,1-4-7.12,22,22,0,0,1,.64-4.49,3.07,3.07,0,0,0-1.09-3.4c-1.16-1-2.37-1.91-3.43-3a4.66,4.66,0,0,0-5.25-1.24,15.23,15.23,0,0,1-3.46,1c-2.83.27-5.28,1.71-8.08,2.15a4.84,4.84,0,0,0,1.73,3.25c2.61,2.74,5.9,4.62,8.84,6.94a14.62,14.62,0,0,1,3.49,3.88,17.19,17.19,0,0,1,1.38,2.52c.94,2.29,2.42,4.36,2.76,6.87A58.64,58.64,0,0,0,504.45,352a4.13,4.13,0,0,0,2.44,2.37c-.21-1.21-.31-2.16-.55-3.06a18.36,18.36,0,0,0-.89-2.22c-1.28-3.11-2.57-6.2-2.31-9.69a6.46,6.46,0,0,1,1.34-3.77,16.31,16.31,0,0,1,2.86-2.89c2-1.44,4.15-2,6.51-.69s4.65,2.51,6.39,4.57c2.68,3.17,5.41,6.3,8,9.56a29.56,29.56,0,0,1,3.28,5.27,24.41,24.41,0,0,1,2.34,8.5c.17,1.83.88,3,2.9,3.15a3.93,3.93,0,0,1,3.44,2.94c.36,1.05.63,2.14.93,3.21s.63,2.27.91,3.26c5.1,1.61,5.91,2.43,5.71,8.18a12.53,12.53,0,0,1,2.49,6.3,8.82,8.82,0,0,0,.82,2.21,7.28,7.28,0,0,1,.94,3.9A38.58,38.58,0,0,1,549.3,403a92,92,0,0,1-10.82,19.15c-4.45,6.23-9.11,12.33-14,18.22a7.05,7.05,0,0,1-5.88,2.68c-2.41-.07-4.36-.92-5.29-3.36a8.33,8.33,0,0,0-.59-1A6.74,6.74,0,0,0,510,440.2a5.75,5.75,0,0,1-4.48,1.25c-3.05-.51-5.73-4.61-4.06-7.8.44-.83.92-1.64,1.38-2.48-2.33-2.77-3-5.93-3.07-9.4a13.08,13.08,0,0,1,1.67-5.89,5.54,5.54,0,0,1,2.77-2.87,14.44,14.44,0,0,1,6.44-1.67c.75,0,1.61.23,2.2-.53-.28-1.67-.67-3.3-.8-4.95s0-3.32,0-4.86a22.82,22.82,0,0,1-3.83-3.26,26,26,0,0,1-2.31-4.79c-1.4.54-2.64,1-3.9,1.5a3.32,3.32,0,0,1-1.6.38,11.77,11.77,0,0,1-5.87-2.52,25.93,25.93,0,0,1-6.19-7.83c-.81-1.67-1.64-3.33-1.37-5.25a47,47,0,0,1,.88-4.71,7.22,7.22,0,0,1,3.4-4.71c2.06-1.22,2.78-3.29,3.45-5.78L488,365.17c-.24,1.2-.5,2.28-.67,3.37a7.18,7.18,0,0,1-3.68,5.58,13.2,13.2,0,0,0-1.3.95c-.3,1.26-.55,2.43-.86,3.58-.83,3.12-5.07,5-7.68,4a56.22,56.22,0,0,0-7.38-2,7.84,7.84,0,0,1-4.28-2.46c-2.42-2.71-4.15-5.68-3.58-9.52a2.57,2.57,0,0,0,0-.48,6.48,6.48,0,0,1,3-5.95c1.9-1.31,2.31-2.84,2-5.12a17.28,17.28,0,0,1,6.1-15.84,4,4,0,0,0,1.48-2.37,12.67,12.67,0,0,0,.34-2.36,16.38,16.38,0,0,1,.86-5.66,25.56,25.56,0,0,0,1.18-9.14,35.8,35.8,0,0,0-2.66-12.57,9,9,0,0,0-2.59-3.35,50.66,50.66,0,0,1-5.14-5c-2.55-2.95-4.58-6.32-7.34-9.12a2.51,2.51,0,0,1-.55-.78,7.43,7.43,0,0,0-3.77-3.52A35.5,35.5,0,0,0,448,285.7a28.94,28.94,0,0,0-11.64-2.45,3.06,3.06,0,0,0-2.81,1.5c-.28.48-.66.92-.9,1.41a9,9,0,0,1-4.84,4.43c-.59.24-1.16.51-1.73.76-1.41,2.56-2.81,5.06-4.16,7.6s-4.06,4.17-6.14,6c.22,1.47,1.73,2.4,1,4-1.83-.27-2.77-1.94-4.55-2.57a6.75,6.75,0,0,0-3.85,1.78c-.39,1.58-.7,3.16-1.17,4.68a28.05,28.05,0,0,1-6.76,12,94.85,94.85,0,0,1-12.68,10.58,16.75,16.75,0,0,0-5.14,5.22,48.64,48.64,0,0,1-11.27,12.95,5.26,5.26,0,0,0-1.28,2c-1.49,3.43-2.18,7.13-3.48,10.63a4.5,4.5,0,0,0-.18,1.42c0,1.6,0,3.2,0,4.8a4.17,4.17,0,0,0,1.2,3,16.14,16.14,0,0,0,5.27,3.67,32.29,32.29,0,0,1,5.14,3,10.78,10.78,0,0,1,2.59,2.79c1.06,1.58,1.91,3.3,2.87,4.95a8.53,8.53,0,0,0,4.64,3.93c2.94,1.05,5.87,2.17,7.91,4.73,0,0,.15,0,.51.14a13.63,13.63,0,0,0,1.21-1.09c.47-.54.78-1.23,1.28-1.72,1.68-1.64,3.51-2.81,6-1.66a3.68,3.68,0,0,0,1.63.16c3.16-.19,5,.93,6.2,3.78a6.57,6.57,0,0,0,.81,1.71,8.06,8.06,0,0,1,1.78,5.58,11,11,0,0,1-2.28,6.93c-1.54,1.86-3.32,3.11-5.95,3-1.66-.09-2.41.7-2.37,2.35a14,14,0,0,1-1.87,6.83,15.11,15.11,0,0,1-5.88,6.11c-1.93,1.18-3.87,2.23-6.25,2a2.65,2.65,0,0,0-.95.17,6.52,6.52,0,0,1-4.84-.81c-.64-.33-1.23-.75-1.85-1.11a7.71,7.71,0,0,1-4-4.86,3.51,3.51,0,0,0-.49-.84,13.49,13.49,0,0,1-1.83-.59c-2.16-1-4.52-1.78-6.05-3.74a21,21,0,0,1-4.6-12.14,30.28,30.28,0,0,1,2-11c.92-2.73,5.46-5,8.62-2.94.65.44,1.35.79,1.87,1.09a1.74,1.74,0,0,0,1.5-1.63,9.17,9.17,0,0,0-1-5.79,14.42,14.42,0,0,0-7.52-6.36,14.83,14.83,0,0,1-7.08-5.12,3,3,0,0,0-.9-.61,25.1,25.1,0,0,0-4.05,9,22.43,22.43,0,0,1-4.38,11,38.39,38.39,0,0,0-3.07,4.57,30.28,30.28,0,0,1-7.11,8,57.35,57.35,0,0,1-11.19,6.88c-1.65.81-3.31,1.61-4.93,2.47a24.67,24.67,0,0,0-6.53,4.82,5.22,5.22,0,0,0-1.63,3.85c0,1.52,0,3,0,4.55.06,2.69,2.26,6.19,5.67,6.37l1.44.07,8.12.38c.4,0,.8,0,1.2-.06,1.43-.11,2.86-.28,4.29-.31,2.63-.05,5.27,0,7.91,0a30.92,30.92,0,0,1,4-.31,42.64,42.64,0,0,1,6.81,1.31c4.38,1.23,8,4,11.75,6.37a18.29,18.29,0,0,0,9.62,3.22c4.14,0,8.27-.74,12.4,0a1,1,0,0,0,.24,0c2.37-.05,2.8-.26,3.49-2.47a9.17,9.17,0,0,1,3.35-4.55,20.61,20.61,0,0,0,1.84-1.52,11,11,0,0,1,5.49-2.79c3.53-.79,8.24,1.26,9.84,4.5s3.61,6.07,3.85,9.73c0,.21.24.41.44.73a12,12,0,0,0,1.56-.1c1.41-.27,2.8-.67,4.22-.89a15.7,15.7,0,0,1,6.89.14,29.89,29.89,0,0,1,4.71,1.75,8,8,0,0,1,3.27,2.31,80.71,80.71,0,0,1,3.95,7.62,3.52,3.52,0,0,1,.22,1.17c.17,1.77-1.32,7.89-2.29,9.45l-.13.2c-1.66,2.82-3.28,5.67-6.11,7.53a.69.69,0,0,0-.17.17,9.91,9.91,0,0,1-5.39,2.93l-5.93,1.41c-2.15,2.6-4.36,5.33-6.64,8a12.39,12.39,0,0,1-2.64,2.37c-1.87,1.21-3.86,2.23-5.78,3.38a4.09,4.09,0,0,0-1.43,1.23c-1.57,2.58-4.31,3.74-6.57,5.47a7.06,7.06,0,0,1-5,1.28c-1.1-.11-2.21-.2-3.42-.3-2,1.68-4.42,3.09-7.1,3a34.6,34.6,0,0,1-8-1.34c-2.66-.71-4.35-2.83-5.6-4.88a65.72,65.72,0,0,0-6.93.72,11.16,11.16,0,0,1-6.75-.94,12.39,12.39,0,0,0-1.51-.34c1.25,1.59,1.83,3,3.4,3.84,1.07-.19,2.24-.43,3.41-.62s2.37-.35,3.56-.52a6.86,6.86,0,0,1,7,3.24c1.52,2.6,1.44,8-.76,10.21a6,6,0,0,0-.8,1.3c.25.23.35.39.48.44.6.21,1.21.4,1.82.59a5.6,5.6,0,0,1,4.05,5.58,10.45,10.45,0,0,1-.81,3.22,5.22,5.22,0,0,1-5.66,3.5,4.4,4.4,0,0,0-3.4.72c-1,.83-2.57.44-3.4,1.59,0,.07-.07.15-.11.22H364a2.22,2.22,0,0,0-2.21-1.17c-2.1.35-3.9-.65-5.79-1.21a3.63,3.63,0,0,1-1.78-1.15,3,3,0,0,0-3.4-1.15,9.18,9.18,0,0,1-5.17-.41,16.74,16.74,0,0,0-2.55-.65c-5-.55-8.6-6.24-7.81-10.45a6.9,6.9,0,0,0,0-1.21c-1.12-.09-1.69.64-2.35,1.18a15.9,15.9,0,0,1-7.24,3.52c-2.58.49-5.1,1.28-7.64,2a11.63,11.63,0,0,1-5.91.39,7.49,7.49,0,0,0-1.42-.21,21,21,0,0,1-12.1-4.65,8.38,8.38,0,0,0-2.74-1.77c-.14.24-.3.39-.28.5a13.38,13.38,0,0,0,.37,1.38c1.08,3.53-.59,6-4.26,6.4-1.19.12-2.38.28-3.57.38-2.62.22-5.24.5-7.87.59-3.18.12-6.32-.82-9.53-.47A8.29,8.29,0,0,1,265.1,527a4.38,4.38,0,0,0-3.88-.7,4.73,4.73,0,0,1-3.68-.61,5.78,5.78,0,0,1-2.72-2.61,6.14,6.14,0,0,0-4.22-3.53,13,13,0,0,1-6.52-4.29,4.76,4.76,0,0,1-.45-6c.94-1.6,2.6-2.23,4.8-1.81.31.06.61.2.92.25.52.09,1.05.13,1.6.2.57-1.39,1.14-2.62,1.58-3.9a6.64,6.64,0,0,0,.18-1.9c.15-4,1.91-6.1,5.84-7,.83-.2,1.65-.45,2.59-.71.08-1.19.12-2.22.24-3.23.36-3.2,1.62-5.89,4.72-7.26a13.37,13.37,0,0,0,4.74-3.53,9.27,9.27,0,0,1,7.21-3.25,5,5,0,0,0,2.72-.77,12.69,12.69,0,0,1,4.89-1.85c1.26-.18,2.5-.52,3.75-.82.76-.18,1.6-.28,2-1.14-.46-1.17-.43-1.24-1.4-1.71a7.38,7.38,0,0,1-3.1-2.91c-.38-.61-.82-1.18-1.24-1.76a7.16,7.16,0,0,1-.16-9.09,13.51,13.51,0,0,0,1.37-2.5c1.54-3.66,4-5.35,8-5.25a13.66,13.66,0,0,1,3.77.57,3.25,3.25,0,0,0,3.83-1.13c1.24-1.46,2.58-2.84,3.76-4.34a3.37,3.37,0,0,0,.67-2,18.63,18.63,0,0,0-.53-3.29c-.23-1.09-.67-2.14-.81-3.24-.31-2.48-1.49-4.68-2.14-7,0-.06-.12-.1-.24-.19a3.21,3.21,0,0,0-2.27,1.07,22.48,22.48,0,0,0-2.46,2.61c-2,2.58-3.92,5.24-5.92,7.84a7.37,7.37,0,0,1-1.73,1.61,26.74,26.74,0,0,1-3.9,2.35,53.49,53.49,0,0,1-6.91,2.65c-3.37,1-6.89,1.45-10.21,2.56a74.37,74.37,0,0,0-8.49,3.87c-.41.2-.66.75-1.16,1.34.64.1,1,.25,1.22.17a30.11,30.11,0,0,0,3.63-1.17c3.11-1.32,6.23-2.49,9.69-2.39a5.66,5.66,0,0,1,3.6,1.1,23.24,23.24,0,0,1,3.55,3.53,5.24,5.24,0,0,1,.73,5.66,22.49,22.49,0,0,1-3.36,5.2,68.77,68.77,0,0,1-14.56,12,20.7,20.7,0,0,1-6.87,2.65c-3.5.68-7,1.83-10.61,1.66a1,1,0,0,0-.24,0,7.45,7.45,0,0,1-6.33-1.41c-2.29-1.61-4.61-3.19-6-5.73a4.14,4.14,0,0,0-.82-.86c-1.59-1.57-3.19-3.14-4.8-4.69a25.5,25.5,0,0,1-6.29-11.13,4.52,4.52,0,0,1-.31-2.12c.36-1.68-.46-2.88-1.2-4.23-1.86-3.39-2.27-6.16.76-10a21.14,21.14,0,0,1,6.76-5.93c2.65-1.37,5.14-2.58,8.17-1.65a5.66,5.66,0,0,0,.72.07,9,9,0,0,1,7.34,4.31A5.73,5.73,0,0,0,250,442.1c.54-1.05-.19-2-.37-3s-.38-2-.53-2.84a5,5,0,0,0-3.12-1,6.76,6.76,0,0,1-5.83-3.64,3.36,3.36,0,0,0-3.42-2.1,4.47,4.47,0,0,1-3.43-1.44,6.68,6.68,0,0,1-1.18-7.33,9.59,9.59,0,0,0,1-3.65,20.87,20.87,0,0,1,.52-2.82c.79-3.53,5.5-7.51,9.14-7.77.32,0,.64,0,1,0,.72,0,1.44,0,2.16,0a6.8,6.8,0,0,1,6.48,3.32,3.79,3.79,0,0,0,4.34,1.78c4.88-.95,9.14.68,13.22,3.07a7.11,7.11,0,0,1,2.48,2.19,5.4,5.4,0,0,0,5.1,2.55,24.19,24.19,0,0,1,7.52,1.35,11.33,11.33,0,0,0,5.85.67c1.07-.23,2.24,0,3.34-.08a53.27,53.27,0,0,0,5.91-.87,44.85,44.85,0,0,0,4.56-1.48,8.32,8.32,0,0,0,3.94-3,31.65,31.65,0,0,1,4.41-4.7c3.37-2.8,6.84-5.51,10.41-8.05a14.55,14.55,0,0,0,4.37-5.59,29.48,29.48,0,0,0,3.1-13.4,3.07,3.07,0,0,0-1.55-2.78c-.41-.25-.77-.58-1.2-.8a9.25,9.25,0,0,1-4.62-5.28,4.24,4.24,0,0,0-2.66-2.57,26.71,26.71,0,0,1-3.24-1.54c-3-1.71-5.91-3.54-7.57-6.77-.19-.38-.68-.61-.9-.8-1.11-.07-1.87,1-2.91.38-.27-1.64,1.45-2.27,1.78-3.77-.31-.82-.69-1.78-1-2.75a3.93,3.93,0,0,0-2.89-2.62c-.54-.15-1.09-.27-1.62-.43a28.73,28.73,0,0,1-14.27-8.84c-3.43-4-6.55-8.25-9.81-12.39a13,13,0,0,0-3.38-3,62,62,0,0,1-10.21-7.91c-1.14-1.1-2.05-2.43-3.13-3.61a4.18,4.18,0,0,0-1.64-1.32c-3.33-1-6.4-3.06-10-2.25-1.23-1.51-1.45-1.66-3-1.76-1-.06-2.08,0-3.12,0-2.73-.2-4.55,1.25-6,3.31-.67,1-1.11,2.12-1.7,3.16-1.11,1.94-2.16,3.92-3.41,5.77a6.28,6.28,0,0,1-2.34,2,50.34,50.34,0,0,0-5.93,3.6,6.75,6.75,0,0,0-2.63,3c-.36.88-.78,1.75-1.12,2.65a13.26,13.26,0,0,1-3.41,5.42,9.12,9.12,0,0,0-1,1.32c.49.54.92,1.07,1.41,1.55.74.73,1.57,1.37,2.27,2.13a4.09,4.09,0,0,1,1,4.41,6.21,6.21,0,0,0-.23,2.32,6.07,6.07,0,0,1-3.81,6.06,13.41,13.41,0,0,0-2.34,1.16,10.08,10.08,0,0,1-11.25-.42c-.57-.45-1.1-.93-1.66-1.38A5.17,5.17,0,0,1,200,356c-.07-.56,0-1.12-.08-1.68a2.19,2.19,0,0,0-2-2.31,4.91,4.91,0,0,0-1.66-.12c-2.69.34-5-.91-6.85-2.4-3.53-2.79-6.41-6.11-6.95-11a9.54,9.54,0,0,1,1.36-6.83,12,12,0,0,0,.92-1.69,6.16,6.16,0,0,1,3.46-3.15l1.83-.76c1.33-4.4,3.51-7.88,7.6-9.92a21,21,0,0,1,11.54-2.56,52.86,52.86,0,0,1,7.48,1.63,5.51,5.51,0,0,1,1.91,1c2.67,2,4.07,5.35,1.35,8.75-.33.41-.61.88-.94,1.36,1.62,1.94,3.58,1.83,5.55,1.23a13.19,13.19,0,0,0,7.75-6.75c.61-1.12,1.19-2.27,1.71-3.43a13.18,13.18,0,0,1,3-4.27c.62-.57,1.43-1.07,1.49-2.21a4.55,4.55,0,0,0-1-.86,33,33,0,0,0-8.48-3.23,22.94,22.94,0,0,1-10.12-4.12c-1.71-1.28-3.62-2.32-5.34-3.61a34,34,0,0,1-5.32-4.43,48.92,48.92,0,0,1-9.36-14.67,37.4,37.4,0,0,0-5.89-9.56,5.07,5.07,0,0,0-4.39-2,28.49,28.49,0,0,1-4.8,0c-3.09-.4-6.69,3.13-6.58,6.79.13,4.47.1,8.95.15,13.42a11,11,0,0,0,.07,2.15,38.46,38.46,0,0,1,.37,9.09,22.71,22.71,0,0,1-2.53,10.62c-1.66,3-3.31,6-5.2,8.89A20.1,20.1,0,0,0,167,333.49a18.24,18.24,0,0,1,0,5.47,9.55,9.55,0,0,0,.29,5.3c.62.26,1.27.56,1.94.8a9.14,9.14,0,0,1,5,3.9,20.45,20.45,0,0,0,1.95,2.42,9.37,9.37,0,0,1,.06,11.94c-2.54,3-6.17,4.16-9.58,5.67a7.78,7.78,0,0,1-2.14.17,15.35,15.35,0,0,0-1.64.33c.47,2.08,1,4,1.32,5.95a15.11,15.11,0,0,1-.31,7.58c-.48,1.35-1,2.69-1.5,4a8.14,8.14,0,0,1-3.77,4.5c-1.74,1-3.52,1.88-5.29,2.8a6.06,6.06,0,0,1-5.1.25,16.66,16.66,0,0,0-3-.85,9.17,9.17,0,0,1-4.54-2,10,10,0,0,0-1.63-1,24.52,24.52,0,0,1-7.37-8,4.07,4.07,0,0,1-.18-.44c-.53-1.93-1.16-3.83-1.56-5.78a4.26,4.26,0,0,0-1.36-2.7c-1-.8-2-1.55-3-2.31a22.62,22.62,0,0,1-2.45-1.87c-2-1.94-4.1-3.8-5.22-6.45-.09-.21-.33-.35-.46-.55a12.5,12.5,0,0,1-1.35-2.23,5.93,5.93,0,0,0-2.07-2.55A20.57,20.57,0,0,1,108.3,350a7.34,7.34,0,0,1-.45-2.81c0-1.35.14-2.7.23-4.17-.27-.37-.6-.82-.94-1.25a9.42,9.42,0,0,1-2-7.65c.14-.78.19-1.58.28-2.38.4-3.48,1.65-6.48,4.79-8.42a7,7,0,0,0,1.06-.95c-.26-2.68-.36-5.16-.8-7.58a9.25,9.25,0,0,1,1.12-6c.36-.71.87-1.34,1.26-2a7.25,7.25,0,0,0,.33-1.38l-5.22,5c.27,1.35.63,2.74.82,4.16a29.91,29.91,0,0,1,.41,5,6.06,6.06,0,0,1-5.86,5.86c-.79.05-1.6,0-2.39,0a8.36,8.36,0,0,1-6.66-2.73A23.3,23.3,0,0,1,88.38,313c-1.17-3.88-3.24-7.28-4.77-10.95-.11-.25-.48-.39-.73-.58v-8.16a3.88,3.88,0,0,0,1.46-2.89,8.73,8.73,0,0,1,5.23-7,9.67,9.67,0,0,1,4-.73c.82,0,1.76.27,2.5-.64-.35-.48-.66-.93-1-1.36a17.74,17.74,0,0,1-3.86-7.87,32.16,32.16,0,0,0-1.52-6.28c-1.55-3.88-.87-7.76-.23-11.58a18.94,18.94,0,0,1,5.33-10.27,3.24,3.24,0,0,0,1-3.05c-.09-.47-.23-.94-.28-1.41-.49-4.57.83-8.33,4.77-11,1.11-.76,2-1.78,3.1-2.63a3.28,3.28,0,0,0,1.18-2.49,24.45,24.45,0,0,1,.78-4,40.08,40.08,0,0,1,1.4-4.08c.8-2,1.78-4,3.9-5,2.34-1,4.76-1.8,7.16-2.64a3.44,3.44,0,0,1,1.43-.1c2.23.17,4.45.35,6.67.59a5.82,5.82,0,0,1,1.57.57,8.52,8.52,0,0,1,4.56,5,6.44,6.44,0,0,0,2.15,2.78,11.17,11.17,0,0,1,4,7.15,31.25,31.25,0,0,0,1,3.91c.42,1.28,1,2.51,1.4,3.8.44,1.54.7,3.12,1.09,4.67.24.93.51,1.89,1.72,1.9.19-.14.38-.21.44-.33,1.13-2.74,3.36-4.4,5.78-5.86a7.59,7.59,0,0,1,8.18,0,19.84,19.84,0,0,0,2.51,1.38c4.88,1.95,6.34,5.86,5.41,10.43-.25,1.25-.54,2.48-.86,3.92,2.4,2,4.47,4.41,7.22,6,5-.7,9.71-2.22,14.46-3.44-.44-1.75-.38-1.82-1.06-2.47a49.33,49.33,0,0,0-4.45-4c-8-6-7.37-5.16-11.24-13a3.42,3.42,0,0,1-.21-.43,37.87,37.87,0,0,1-1.22-4.11,57.9,57.9,0,0,0-5.41-16.81A17.62,17.62,0,0,0,161.7,208c-.21-.29-.7-.38-1.24-.66a10.35,10.35,0,0,0,1,4.86,35.11,35.11,0,0,1,2.21,6.05c.9,3.92.15,7.46-3.19,10.12a7.06,7.06,0,0,1-7.65,1,19.46,19.46,0,0,1-6.63-5,85.25,85.25,0,0,1-8.17-10c-2.15-3.3-4-6.72-4.49-10.73-.14-1.19-.46-2.35-.67-3.53s-.44-2.49-.62-3.74a18.68,18.68,0,0,0-.22-2.14,6.34,6.34,0,0,1,1-5.5c1.78-2.48,3-5.52,6.1-6.88a2.48,2.48,0,0,0,.74-.6c1.4-1.52,2.77-3.07,4.2-4.55a18.29,18.29,0,0,1,2-1.68c.69-.54,1.42-1,2.12-1.56a19.42,19.42,0,0,1,10.37-3.9,7.72,7.72,0,0,0,3.59-1.09,8.32,8.32,0,0,1,10.58,1c.59.54,1.14,1.12,1.76,1.63,2.62,2.14,3.82,5.21,5.23,8.12.72,1.5.22,3.11.1,4.71a10.16,10.16,0,0,1-4.58,8.25,7.38,7.38,0,0,0-2.64,5.2c2.19,0,4.18-.84,6.11-1.28a4.94,4.94,0,0,0,1.05-3,7.37,7.37,0,0,1,3.38-5.54,3.77,3.77,0,0,0,2-3.08,5.69,5.69,0,0,1,.39-1.38c1.27-3.41,4.77-5.6,8.73-3.82a9.22,9.22,0,0,0,1.77.71c1.63.38,3.27.74,4.93,1a5.71,5.71,0,0,1,3.2,1.51,15.91,15.91,0,0,1,4.19,6.6,6.08,6.08,0,0,1,.16,1.66c0,.8,0,1.6,0,2.4a7.29,7.29,0,0,1-3.3,6.55,3.8,3.8,0,0,0-1.76,4.33,14.65,14.65,0,0,1-.58,8c-1,2.82-2.19,5.64-4.56,7.47a6.54,6.54,0,0,0-2.74,6,15.43,15.43,0,0,1-.82,5.18c-.39,1.31-.79,2.61-1.12,3.92a6.68,6.68,0,0,0-.23,1.88c0,1.51.21,3,.23,4.54a29.54,29.54,0,0,0,2.81,11.8,9.11,9.11,0,0,0,2.54,3.12,47.25,47.25,0,0,1,5.3,5.19c2.53,3,4.73,6.2,7.23,9.22a19,19,0,0,0,8.07,5.74,41.73,41.73,0,0,0,9.55,2.24,4.2,4.2,0,0,0,4.26-1.55,13,13,0,0,0,1.14-1.54,8.94,8.94,0,0,1,4.92-4.33,4.27,4.27,0,0,0,2.54-2.38c.69-1.44,1.39-2.88,2.15-4.28a16.27,16.27,0,0,1,5.79-6.57,6.69,6.69,0,0,0,.95-.82c-.15-1.33-1.5-2.12-1.06-3.45,1.4,0,1.5-.05,2.18.66,1.4,1.48,2.85,1.36,4.57.62,1.39-.6,2.29-1.35,2.41-2.93a11,11,0,0,1,.49-2.1,28.62,28.62,0,0,1,6.37-11.95,72.08,72.08,0,0,1,7.11-6.4c2.41-2,5-3.78,7.45-5.63a13.45,13.45,0,0,0,3.37-3.68,62.61,62.61,0,0,1,7.92-10.2,37.41,37.41,0,0,1,3.46-3,4.9,4.9,0,0,0,1.69-2.53c.91-3,1.95-5.9,2.81-8.89a27.38,27.38,0,0,0,1-6.32,6.68,6.68,0,0,0-3.56-6.31,36.31,36.31,0,0,0-3.62-1.86c-3.58-1.74-6.62-3.86-8.35-7.79a13.33,13.33,0,0,0-8.92-7.8,9.48,9.48,0,0,1-4.4-2.78c-.32-.34-.68-.64-.92-.87a2,2,0,0,0-1.93,1,25.25,25.25,0,0,1-2.27,2.46,4,4,0,0,1-4.43.92,5.64,5.64,0,0,0-2.32-.28,5.83,5.83,0,0,1-6-3.81,9.36,9.36,0,0,0-.9-1.95c-2-2.75-2.18-5.73-1.23-8.88a12,12,0,0,1,3.54-5c1.14-1.09,2.72-1.17,4.28-1.22,1.86-.07,2.59-.84,2.56-3a11.61,11.61,0,0,1,1.48-5.93,18.23,18.23,0,0,1,6-6.36,14.1,14.1,0,0,1,6.49-2.16,9,9,0,0,1,6.15,1.27c3.87,2.38,3.88,2.36,5.85,6.36a7.37,7.37,0,0,1,1.05.33c3.17,1.43,6.3,2.66,8.17,6.14,2.72,5.1,3.94,10.25,2.61,15.9a33.27,33.27,0,0,1-1.47,5.05,6,6,0,0,1-9.54,2.25,8,8,0,0,0-1.18-.75c-1.82,1.42-1.79,3.26-1.35,5.07a10.88,10.88,0,0,0,2.57,4.82,17.49,17.49,0,0,0,6,4.29,16.64,16.64,0,0,1,6.51,4.35,8.59,8.59,0,0,0,1.55,1.17c.42-.47.85-.77,1-1.17,1.23-2.94,2.84-5.71,3.34-9a22.12,22.12,0,0,1,4.87-10.8,19.12,19.12,0,0,0,1.87-2.76,25.72,25.72,0,0,1,5.63-7.11c1.09-.93,2.34-1.67,3.43-2.61,3.24-2.82,7.08-4.63,10.94-6.35a44.23,44.23,0,0,0,9.54-5.92,4.93,4.93,0,0,0,2-4.15c-.05-1.92,0-3.84,0-5.76a4.75,4.75,0,0,0-.28-1.64,6.91,6.91,0,0,0-6.69-4.19c-1.28,0-2.56.1-3.84.11q-8.14,0-16.31,0c-2.53,0-5,.55-7.62.08a21.89,21.89,0,0,1-6.86-2c-3-1.66-6.08-3.24-8.91-5.16a20.79,20.79,0,0,0-15.53-3.29,13.36,13.36,0,0,1-4.28,0,10.48,10.48,0,0,0-5.56.25,15.19,15.19,0,0,1-.88,2.15,19.05,19.05,0,0,1-2.61,4,26,26,0,0,1-4.58,3.47,9.24,9.24,0,0,1-11-.63c-3-2.53-4.16-6.17-5.67-9.58a7.37,7.37,0,0,1-.17-2.13c-.05-.53-.2-1-.33-1.7-1.93.45-3.71.84-5.47,1.27-5.18,1.27-9.76-.52-14.23-2.81a3,3,0,0,1-.56-.45c-2.46-2.22-3.37-5.34-4.72-8.2a.93.93,0,0,1,0-.24,18.24,18.24,0,0,1,1.64-9.81,21.64,21.64,0,0,1,4.36-6.54c.51-.47,1.14-1,.8-1.82a4.6,4.6,0,0,0-4.19.94c-3.06,2.57-6.08,5.18-9.21,7.65a3.88,3.88,0,0,0-1.65,3.23,7.06,7.06,0,0,1-1.92,4.78,52.27,52.27,0,0,1-7.08,7.11c-3.13,2.38-6.29,4.42-10.48,3.43a2.15,2.15,0,0,0-.58.09c-.42.34-.92.74-1.41,1.15a17,17,0,0,1-6.06,3.29c-3.16.91-5.7-.08-7.25-3-.36-.68-.71-1.37-1.1-2.12-.48.19-.88.22-1,.43-1.63,2.38-3.76,2.35-6.11,1.32-.14-.06-.31-.07-.46-.12-2.78-1-5.43-3.79-4.16-7.77a15.84,15.84,0,0,1,2.6-4.82c2.19-2.85,4.33-5.74,6.65-8.49a19.5,19.5,0,0,1,5.72-5,28.63,28.63,0,0,0,5.33-3.56c4.2-3.58,9-5.53,14.68-3.58a9.45,9.45,0,0,0,2.91-3.09A11.64,11.64,0,0,1,207,68.42a66.46,66.46,0,0,0,11.51-7.31,43.34,43.34,0,0,1,14.84-7.58,9.91,9.91,0,0,1,5.62.26,4.61,4.61,0,0,1,2.86,2.7,27.09,27.09,0,0,0,1.85,3c.34.54.75,1,1.07,1.59a7,7,0,0,1-1.33,8.56c-1,.84-2,1.61-3,2.38a16.1,16.1,0,0,1-5.62,2.59c-1.77.47-2,1.22-1,3.15l5.67-1.15a17.63,17.63,0,0,0,2.44-2.76,13.17,13.17,0,0,1,3.86-4.79c1.72-2.8,5-3.62,7.28-5.7,2.39-.52,3.38-2.47,4.53-4.3-1-.9-2-1.71-2.9-2.58S253,54.79,252.15,54a4.77,4.77,0,0,1-.76-6.65c.69-1,1.41-2,2-3a9.76,9.76,0,0,1,4.08-3.95c3.28-1.66,6.55-3.34,10-4.71,4.3-1.72,8.69-3.23,13.1-4.65,2.41-.77,4.8-1.76,7.44-1.74a9.9,9.9,0,0,0,2.56-.6c4-1.07,8-2.17,12-3.21C304.48,25,306.43,24.62,308.37,24.18ZM397.7,280.07c-.18-2.2-.25-5.41-.71-8.56a68.9,68.9,0,0,0-9.07-25.83,53.16,53.16,0,0,0-6.61-9.1,89.36,89.36,0,0,0-9.68-9.28,57,57,0,0,0-10.56-6.58,93.11,93.11,0,0,0-10.27-4,52.27,52.27,0,0,0-13.39-2.51,54.72,54.72,0,0,0-12.91.51,68.8,68.8,0,0,0-21.23,7.19c-8.42,4.52-15.11,10.93-20.91,18.36a61.69,61.69,0,0,0-7.94,13.9,69,69,0,0,0-5.33,23,65.07,65.07,0,0,0,.83,14.8,67.64,67.64,0,0,0,18.76,37c1.34,1.36,2.87,2.53,4.27,3.84a53.31,53.31,0,0,0,13.39,8.75,58.86,58.86,0,0,0,19.46,5.72,61.23,61.23,0,0,0,7.63.58,84.84,84.84,0,0,0,8.56-.8,58.73,58.73,0,0,0,21.67-7.28,63.22,63.22,0,0,0,17.82-14.69,68.17,68.17,0,0,0,8.95-13.56C395.22,302,397.5,291.77,397.7,280.07ZM356.77,443.12a7.12,7.12,0,0,0-.17,4.19c.43,1.95.89,3.89,1.24,5.84a7.27,7.27,0,0,0,4,5.6,7,7,0,0,1,1.95,1.33c3.07,3.25,3.05,3.27,4.51,7.07a34.56,34.56,0,0,1,3.43-.58c1.25-.1,2.53,0,3.91,0a4.61,4.61,0,0,0,.68-3.36c-.9-3.71-1.52-7.55-4.4-10.41-1.07-1.06-2.29-2-3.35-3a30.5,30.5,0,0,0-9.46-6A16.39,16.39,0,0,0,356.77,443.12ZM172.07,303.85h-1.33c-3.15-.05-6.14,1-9.2,1.43a6.4,6.4,0,0,0-5.22,4.05,3.59,3.59,0,0,1-1,1.59c-2.32,1.49-4,3.94-6.89,4.6-.12,0-.19.23-.13.16.11,2.63.21,5.05.31,7.59a9.44,9.44,0,0,0,1.37.26c3.61.16,6.9-1,10.1-2.53a6.14,6.14,0,0,0,1.36-1,39.48,39.48,0,0,0,9-11.39A19.36,19.36,0,0,0,172.07,303.85ZM290.89,95.67a7.64,7.64,0,0,0-.08,4c.43,1.87,1,3.71,1.48,5.55a9.66,9.66,0,0,0,2.35,3.85,39.2,39.2,0,0,0,10.29,8.13,11,11,0,0,0,5.08,1.64,9,9,0,0,0,.07-4.29c-.37-1.88-.87-3.75-1.12-5.64a7,7,0,0,0-4.24-5.67,3.75,3.75,0,0,1-1.58-1c-1.49-2.23-3.83-3.9-4.47-6.7,0-.12-.23-.2-.15-.14ZM519.17,245.94c-.23-1.24-.52-2.4-.62-3.56s0-2.51,0-3.87a3.5,3.5,0,0,0-.81-.3,15.44,15.44,0,0,0-11.48,3.07,31.55,31.55,0,0,0-8.92,10.52,14.2,14.2,0,0,0-2,5.52,7.07,7.07,0,0,0,4.76.16,30.31,30.31,0,0,1,4.66-1,7.29,7.29,0,0,0,6.22-4.55,3.7,3.7,0,0,1,.73-1.22c1.82-1.55,3.48-3.31,5.83-4.1C518.06,246.42,518.56,246.19,519.17,245.94Zm-386.42,43a7.78,7.78,0,0,0-1.34.43c-1.34.71-2.66,1.44-4,2.21a9.07,9.07,0,0,0-1.33,1c-2.15,1.77-4.28,3.58-6.46,5.32a26.19,26.19,0,0,1-2.44,1.51,5.08,5.08,0,0,0-1.16.8c-.38.43-.57,1,.2,1.63a23.49,23.49,0,0,0,3.9-1.92c3.25-2.39,7.06-2.28,10.75-2.68a4.43,4.43,0,0,1,2.09.44c1.61.68,3.18,1.47,4.76,2.23a9.34,9.34,0,0,1,5.59,8.53,16.83,16.83,0,0,0,.36,2.13,8.69,8.69,0,0,0,8.94-1.85l1.28-4-4.7.19a6.38,6.38,0,0,1-4-1.34,27.67,27.67,0,0,1-3.09-2.24c-1.69-1.56-3.65-2.79-5.14-4.63a16.94,16.94,0,0,1-3.87-7.3C133.1,289.27,133,289.22,132.75,288.93ZM325.3,79.8c-1.07-2.07-2.09-4-3.12-6a2.58,2.58,0,0,0-.31-.36c-.95-1.18-1.91-2.35-2.85-3.54-1.62-2.06-3.57-3.86-4.64-6.35-.36-.82-1.29-1.08-2.5-1a31.14,31.14,0,0,0,2.33,4.55c2.41,3.24,2.3,7,2.74,10.74a4.28,4.28,0,0,1-.41,2.09c-.71,1.69-1.52,3.33-2.32,5a9.3,9.3,0,0,1-8.36,5.47c-.77,0-1.53.21-2.15.3a8.46,8.46,0,0,0,1.89,9.1l3.73,1c0-1.6,0-2.94,0-4.27a6,6,0,0,1,1-3.64c1-1.45,2-2.9,3.06-4.27a27,27,0,0,1,3.31-3.76c2.34-2,4.72-4.1,8-4.56C324.81,80.23,324.92,80.08,325.3,79.8Zm38.27,391.75c1-3.1.14-5.53-1.28-7.83-1.08-1.77-2.82-2-4.77-2a6.36,6.36,0,0,0,0,1.34,8.58,8.58,0,0,1-1.74,7.44c-.85,1.15-1.63,2.37-2.51,3.49-1.38,1.75-2.68,3.59-4.74,4.66a4.15,4.15,0,0,0-.94.74,8.45,8.45,0,0,1-4,2.1c-.67.17-1.45.22-1.86,1.11a6,6,0,0,0,.45,1.24c1.16,1.91,2.33,3.8,3.53,5.68,2,3.15,5.15,5.47,6.65,9a1.7,1.7,0,0,0,2.22.75c-.25-.59-.41-1.08-.65-1.54-1.75-3.38-3.88-6.63-3.65-10.68a2,2,0,0,0-.05-.24c-.42-2.84-.23-5.57,1.54-8a12.29,12.29,0,0,0,1-1.9c1.62-3.37,4.41-4.88,8-5.11C361.72,471.75,362.58,471.65,363.57,471.55ZM534.19,272.62c2.38-.48,3.93-1.85,5.57-2.87,3.71-2.32,6.67-5.69,10.57-7.79a1.42,1.42,0,0,0,.73-2,9,9,0,0,0-4.38,1.92c-3.1,2.34-6.84,1.86-10.29,2.63a1.32,1.32,0,0,1-.48,0,22.24,22.24,0,0,1-9-4.26,8.53,8.53,0,0,1-3.13-6.74c0-1.11.09-2.29-1.29-3a27.91,27.91,0,0,0-3.68.3c-3.44.75-5,1.74-5.12,5.7a1.91,1.91,0,0,0,2,.25,5.91,5.91,0,0,1,4.84.76,54.2,54.2,0,0,1,4.95,3.33,31.08,31.08,0,0,1,5.77,5.69,10.85,10.85,0,0,1,2.08,3.72C533.58,270.94,533.87,271.67,534.19,272.62Zm-4.27,16.75c1.63-1.95,2.88-3.6,4.28-5.1a16.51,16.51,0,0,1,3.56-3.13,4.56,4.56,0,0,0,2.5-3.42c1.61-8.2,10.15-12.31,17.49-7.66,2.07,1.32,4.27,2.43,6.43,3.61.09.05.28-.08.42-.13-.19-1.53-2.45-4.94-3.63-5.45a1.09,1.09,0,0,0-.23-.09,27.77,27.77,0,0,0-11.54-1.46A5.55,5.55,0,0,0,546,268a54.78,54.78,0,0,1-5.32,4.43c-2.49,1.7-5.17,3.11-7.75,4.68-1.92,1.17-2.6,3.3-3.73,5.07-.14.22,0,.62,0,.94.12,1.58.24,3.17.38,4.75C529.61,288.24,529.74,288.6,529.92,289.37Zm-427.23-1.58-.31.41c.79,1.47,1.51,3,2.4,4.37a2.76,2.76,0,0,0,1.52,1.05,33.5,33.5,0,0,0,10.14,1.62,7.42,7.42,0,0,0,4.49-1.43c1.37-1.08,2.65-2.29,4-3.42a23.53,23.53,0,0,1,2.64-2c2.1-1.31,4.24-2.56,6.4-3.76s2.78-3.39,3.9-5.28c.14-.24,0-.63,0-.94-.11-1.52-.2-3-.35-4.53a6.85,6.85,0,0,0-.52-1.41c-1.59,2-3,3.68-4.38,5.41a13.37,13.37,0,0,1-5.32,3.82c-.3,1.33-.51,2.51-.82,3.66a10.91,10.91,0,0,1-8.7,8,12.77,12.77,0,0,1-8.89-2C107,289.91,104.77,288.93,102.69,287.79ZM332.58,74.38c-1.51-.33-2.69-.53-3.84-.86-8.09-2.37-9.77-11.43-6.27-16.8,1.26-1.93,2.29-4,3.39-6a9.47,9.47,0,0,0,.45-1.41c-1.91,1-3.44,1.82-4.92,2.7a2.08,2.08,0,0,0-.77,1.17c-1,3.61-2,7.27-1.6,11.06A9.2,9.2,0,0,0,320.39,68a21.7,21.7,0,0,0,3.06,3.65,20.63,20.63,0,0,1,3.42,4.88c1,1.81,2.1,3.56,3.19,5.32a2.66,2.66,0,0,0,.84.83c1.13.73,2.28,1.46,3.47,2.1a2.77,2.77,0,0,0,1.38.21c1.51-.08,3-.19,4.52-.34a8.7,8.7,0,0,0,1.42-.42,9.46,9.46,0,0,0-.8-.86c-1.48-1.2-3-2.38-4.48-3.57A12.27,12.27,0,0,1,332.58,74.38ZM380.5,458.87c3.28,2.27,7.22,2.55,9.75,5.1,2.54-.07,3.83-1.63,5-3.23a2.37,2.37,0,0,0-.58-3.21,5.78,5.78,0,0,0-1.44-.84,14,14,0,0,1-5.47-4.13,3.27,3.27,0,0,0-.67-.56h-8.82c.52,1.25,1,2.3,1.38,3.4S380.23,457.71,380.5,458.87ZM271.09,102.27l.59,2.07a47.59,47.59,0,0,1,4.44,2.58,42.28,42.28,0,0,1,3.52,3.12h8.68l-2-6.72c-1.35-1.16-3.21-1.64-4.95-2.39s-3.53-1.79-5.31-2.71C273.6,98.48,272.54,100.43,271.09,102.27ZM151.21,338.47c.24,2.18,2.24,3.2,4,4.6l2.08-.56A46.74,46.74,0,0,1,159.9,338a38.64,38.64,0,0,1,3.1-3.43c0-1.61.07-3,0-4.29s.47-2.85-.67-4.16a17.7,17.7,0,0,1-3.88,1.13c-1.93.13-2.79,1.2-3.46,2.76C153.82,332.7,152.6,335.36,151.21,338.47ZM504.5,235.73a21.88,21.88,0,0,1,4-1.33,4.37,4.37,0,0,0,3.94-3.27c.9-2.63,1.72-5.29,3.56-7.19-.33-2.78-1.5-3.39-4.09-5.23-1.94.25-1.94.25-2.66,1.52-1.36,2.4-2.47,5-4.92,6.59-.18.11-.24.4-.44.77C504.49,230.06,503.73,232.79,504.5,235.73ZM353.76,455.18c-.34-2.72-.46-5.15-1.53-7.42a3.67,3.67,0,0,0-2.55-2,39.8,39.8,0,0,0-6.55-1.24c-3-.21-6.05-.08-9.08,0a42.89,42.89,0,0,0-5.83.79l.66,2.26c2.8-.07,5.34-.11,7.87-.2,4.51-.17,8.05,1.92,10.85,5.11C349.28,454.35,351.32,454.53,353.76,455.18Zm153.16-194c-2.36-.8-4.17.07-6,.42a4,4,0,0,0-3.26,3.14,40.92,40.92,0,0,0-1.16,6.57c-.2,3-.06,6.06-.05,9.09a25.64,25.64,0,0,0,.81,5.41,1.89,1.89,0,0,0,2.06-.44c0-3.14-.09-6.08.05-9a9.23,9.23,0,0,1,.91-3.9c1.38-2.58,2.47-5.45,5.54-6.62C506.2,264.21,506.54,262.77,506.92,261.14ZM160,300.41c.43.22.71.49,1,.47a15.81,15.81,0,0,0,6.26-1.3,4.53,4.53,0,0,0,2.48-3.32,35.32,35.32,0,0,0,1-8.75c-.11-2,.06-4,0-6s-.41-3.91-.62-5.88a2.23,2.23,0,0,0-2.33.76c0,3,.1,5.76.09,8.54A14.38,14.38,0,0,1,162.64,295a5,5,0,0,0-1.57,1.72A28.91,28.91,0,0,0,160,300.41Zm153.65-193c-.47,2.35.18,6,1.43,7.47a5.05,5.05,0,0,0,2.27,1.64,32.62,32.62,0,0,0,6.33,1.15c3.1.19,6.22.08,9.33,0a17.31,17.31,0,0,0,5.33-.88c.26-1,.12-1.68-.56-2.08-3.09,0-6,.16-9,.06a9,9,0,0,1-3.89-.92c-2.56-1.4-5.38-2.59-6.66-5.49-1.27-.37-2.4-.73-3.56-1A3.57,3.57,0,0,0,313.61,107.42ZM302.33,470.77a7.51,7.51,0,0,0,5.18,4.48c1.67.53,3.46.72,5.07,1.37,2.78,1.13,5.63.95,8.48.91a5,5,0,0,0,1.24-.35c-.06-.26-.06-.37-.11-.41q-3.24-2.38-6.51-4.75a2,2,0,0,0-.45-.16c-1.9-.82-3.79-1.64-5.7-2.44a2.81,2.81,0,0,0-1.35-.39C306.25,469.35,304.21,469.37,302.33,470.77ZM529,291.49a16,16,0,0,0-1.31,1.89,13.72,13.72,0,0,1-2.89,4.07,4.33,4.33,0,0,0-.88,1.39c-.86,2-1.74,3.92-2.51,5.92a4.91,4.91,0,0,0-.31,2.3,18.94,18.94,0,0,0,.9,3.46,7.09,7.09,0,0,0,1,1.5,10.51,10.51,0,0,0,2.31-1.82,18.4,18.4,0,0,0,2.06-4,33.81,33.81,0,0,0,1.45-5.3C529.38,297.87,529.84,294.8,529,291.49ZM344.1,85.06c2.16,2.16,5.2,2.56,6.36,4.61,2.31,1,4.18,1.91,6.08,2.7a6.33,6.33,0,0,0,2.7.76,14.6,14.6,0,0,0,5.3-1.54,7.73,7.73,0,0,0-.39-1,9.14,9.14,0,0,0-6-4,26.37,26.37,0,0,1-3.7-.94,15.69,15.69,0,0,0-6.56-1A8.49,8.49,0,0,0,344.1,85.06ZM144.72,249.59c-2.61,1.21-3.7,2.21-4.49,4.51a48.68,48.68,0,0,0-2.61,11.41,30.91,30.91,0,0,0,.36,4.78c1.91-2.82,3.68-5.17,5.16-7.69a40.18,40.18,0,0,0,2.52-5.68,4.44,4.44,0,0,0,.39-2.3C145.75,253,145.22,251.4,144.72,249.59ZM342.5,490.3c-.44-.95-.64-1.51-.94-2-1.47-2.55-3-5.08-4.44-7.63-.49-.85-4.38-3.4-5.29-3.43a3.87,3.87,0,0,0-.48,0c-1.42.11-2.85.2-4.28.34a11.86,11.86,0,0,0-1.51.37c.09.33.08.55.18.62,1.62,1.28,2.92,2.92,4.79,3.93a6.41,6.41,0,0,1,2,2c.72,1,1.28,2.18,1.76,3Zm-57-50.25c1.82-.34,1.94-.3,2.87-1.29a40.5,40.5,0,0,0,4-4.71,9.22,9.22,0,0,0,1.37-6.69c-2.26-.79-4.41-1.58-6.58-2.31a2.44,2.44,0,0,0-1.17,0c-1.41.28-2.82.55-4.19,1a2.62,2.62,0,0,0-2.11,1.72c1.55.31,2.92.57,4.29.87,4.23.93,5.26,6.78,3,9.52C286.54,438.69,286.08,439.3,285.49,440.05ZM387.15,134.5c-.46-.08-.82-.13-1.17-.21-1.31-.29-2.65-.54-3.94-.91a4,4,0,0,1-2.38-1.91c-.9-1.6-.78-3.38-.75-5.14,0-1.25.85-2,1.62-2.82.4-.42,1-.76.75-1.73a12.85,12.85,0,0,0-1.52.7c-2.64,1.67-4.27,4.26-5.87,6.82a6.64,6.64,0,0,0-.37,5.67c2.11.77,4,1.5,6,2.16a2.71,2.71,0,0,0,1.41.09c1.48-.33,3-.69,4.39-1.16C386,135.83,386.86,135.61,387.15,134.5Zm92.36,199.8c.42-1.59.84-2.94,1.11-4.33.76-3.92,8.26-5.48,10.3-1.79a2.23,2.23,0,0,0,1.79,1.3c-1.15-3.81-4.1-5.76-7-7.7a9.39,9.39,0,0,0-6.46-1.32c-.29.89-.54,1.63-.77,2.38a10.49,10.49,0,0,1-.68,2.29,5.65,5.65,0,0,0-.39,5c.21.6.23,1.26.4,1.87A2.93,2.93,0,0,0,479.51,334.3ZM187.26,226.75c0,.73,0,1.1,0,1.48-.12,2.2-.58,4.31-2.33,5.81-1.4,1.2-3.21,1.34-5,1.38a4.59,4.59,0,0,1-3.51-1.79c-.39-.42-.78-1-1.52-.81,0,.2-.07.29,0,.35a4.76,4.76,0,0,0,.29.65c1.58,3.06,4.27,4.91,7.14,6.53a6.71,6.71,0,0,0,5.34.35,5.77,5.77,0,0,0,.53-.84c.62-1.64,1.23-3.28,1.81-4.94a2,2,0,0,0,.22-1.15c-.57-2.07-.64-4.29-1.84-6.16C188.19,227.33,187.82,227.17,187.26,226.75ZM262.46,422c1,.69,1.71,1.29,2.52,1.8,1.31.81,3.36.76,4.25-.14s1.91-2.1,2.84-3.14a7.18,7.18,0,0,0-2.71-3.61,20.32,20.32,0,0,0-9.08-3.44,3.92,3.92,0,0,0-2.89.82C261.28,415.59,262.46,418.38,262.46,422ZM403.94,139.85c-.45-.36-1-.85-1.57-1.25a3.88,3.88,0,0,0-5.47.82c-.6.73-1.25,1.43-1.9,2.17a4.07,4.07,0,0,0,1.5,2.87,19.84,19.84,0,0,0,10.72,4.34c.37,0,.79-.28,1.37-.51a24.19,24.19,0,0,1-3.21-3.74A24.24,24.24,0,0,1,403.94,139.85Zm62,216.77c1.28-1.29,1.7-3.05,3.31-3.62s3.13-1.06,5.09-1.72l2.11-2.33c-.1-1.17-.2-2.27-.3-3.46-1.45-.88-2.21-2.54-3.91-3.09A5.59,5.59,0,0,0,468.9,345a46,46,0,0,0-2.25,4.21A13.11,13.11,0,0,0,465.93,356.62ZM201.22,205c-2.71,3.58-2.71,3.58-8.42,5.23-.38.47-.86,1-1.26,1.59a3.89,3.89,0,0,0,.81,5.45c.73.59,1.42,1.24,2.17,1.9a3.78,3.78,0,0,0,2.85-1.46A15.92,15.92,0,0,0,201.22,205ZM340.83,512.92c1.3-.74,2.28-1.4,3.34-1.9a4,4,0,0,0,2.41-3c.44-2.26.82-4.53,1.25-6.79a9.17,9.17,0,0,0-2.63-8.5c-.2-.21-.6-.22-1.24-.43a13.17,13.17,0,0,0,.6,1.43c2.48,4.14,2.08,8.14-.44,12.13-1.23,1.95-2.24,4-3.32,6.07C340.7,512.05,340.8,512.32,340.83,512.92ZM218.35,335.28c1.08-1.77,2.1-3.45,3.26-5.33l-4.94-3c-.57.42-1.34.69-1.5,1.16-.69,2-1.82,3.88-2,6.12A5.72,5.72,0,0,0,218.35,335.28ZM287.09,163.9c-.77-1.62-.76-1.65-1.52-1.94-1.19-.45-2.39-.88-3.59-1.28-.66-.21-1.35-.32-2.05-.49a5.86,5.86,0,0,0-1,5.2l5.27,3.25ZM454,227.47c-1.57-1.44-3.29-1.48-5.24-1-1.06,1.69-2.14,3.41-3.25,5.2l4.55,2.76a2,2,0,0,0,2.2-1.47C452.81,231.19,453.39,229.46,454,227.47Zm-71.4,166.26c-.87,1.38-1.75,2.59-2.44,3.9a1.76,1.76,0,0,0,.94,2.56c1.85.68,3.73,1.24,5.6,1.85,1.67-1.56,1.41-3.36,1-5.15A1.6,1.6,0,0,0,387,396C385.6,395.27,384.19,394.56,382.62,393.73ZM513.27,234.16a36.81,36.81,0,0,0,8.1-.06c.46-.08.84-.63,1.2-.91a3.39,3.39,0,0,0-1.33-2.83c-1-.81-1.79-1.8-2.7-2.68-.32-.31-.71-.56-1.14-.9C515.06,228.61,515.17,231.58,513.27,234.16ZM323.87,448.85c.39-2.86-.64-4.17-3.22-4.41a24.86,24.86,0,0,1-3.71-.74c-.83-.2-1.62-.52-2.63-.86l-.92,3c2.46,1.27,4.69,2.47,7,3.56A3.24,3.24,0,0,0,323.87,448.85Zm174-148c.34-.61.62-1.08.87-1.56.84-1.63,1.69-3.25,2.5-4.89a3.53,3.53,0,0,0-.62-4.19,4.85,4.85,0,0,0-3.58,1.23c-.26,1.3-.56,2.77-.86,4.25s-1.2,2.75-1.15,4.48ZM342.74,113.41c.14,1.61.26,2.4.8,3s1.08,1.15,1.67,1.18A27.62,27.62,0,0,1,351.7,119c.19.06.45-.1.76-.18a13.44,13.44,0,0,0,.64-1.2,13.75,13.75,0,0,0,.42-1.33,5.34,5.34,0,0,0-.67-.44,37,37,0,0,1-6-2.85C345.47,112,344,112.41,342.74,113.41ZM166.33,271.5c3.24-.46,3.82-1,4.32-3.73.28-1.48.72-2.93,1.06-4.4.11-.45.15-.91.25-1.59l-2.82-1.23c-.22.5-.34.78-.47,1.06a46.1,46.1,0,0,1-2.46,5.16A4,4,0,0,0,166.33,271.5ZM381.19,470.58a3.66,3.66,0,0,0,3-1.69,22.3,22.3,0,0,1,2.13-2.22l1.08-1.13c-.47-.53-.77-1.18-1.28-1.41-1.91-.9-3.88-1.67-6-2.53-.14.5-.34.81-.29,1.08a14.43,14.43,0,0,1,0,5.89A1.77,1.77,0,0,0,381.19,470.58Zm-102-373.89c.49.52.74,1,1.13,1.17,1.81.8,3.65,1.54,5.5,2.25.25.1.59,0,1.1-.06-.1-2.44-.17-4.79-.33-7.14,0-.39-.48-.76-.68-1.07a2.87,2.87,0,0,0-3.15,1.39,23.19,23.19,0,0,1-2.32,2.33C280.13,95.89,279.77,96.19,279.21,96.69ZM149.64,334.86a3.69,3.69,0,0,0,1.82-2.37c.3-.82.61-1.64.89-2.47s1.14-1.6.46-2.78c-.91.05-1.84.12-2.77.15s-1.91,0-2.87,0-1.93,0-2.54,1a3.14,3.14,0,0,0,1.44,2.86,10.23,10.23,0,0,1,2.77,2.91A5,5,0,0,0,149.64,334.86Zm126.8,108.81c-.37-.09-.67-.26-.9-.2a36.46,36.46,0,0,0-4.33,1.23,14.53,14.53,0,0,1-8.42.95,4.56,4.56,0,0,0-.67.28c-2.53,1.93-5.13,1.81-7.81.31a9.61,9.61,0,0,0-1.83-.51l.5,2.59C257.34,450,273.71,446.29,276.44,443.67ZM529,379.22c-.46,2.22-.46,2.22.13,3.94l5.42,1.47a9.72,9.72,0,0,0,.18-1.95,14.26,14.26,0,0,0-.62-2.56,5.9,5.9,0,0,1-.31-3.5,1.45,1.45,0,0,0-.74-1.84C531.38,376,530.81,378.39,529,379.22Zm-28.5-18.05c1-5.91-2.07-20.31-5.13-23.43.74,2.38,1.09,4.31,1.68,6.19.66,2.12,1.48,4.2,1,6.55a4.21,4.21,0,0,0,.5,2.52,6.6,6.6,0,0,1-.16,6.63c-.32.58-.87,1.19-.28,2.19ZM169.86,199.73c-2.93.28-3.54.78-3.46,3.27a38.07,38.07,0,0,0,1.26,10.13c1,3,1.83,6.09,2.77,9.13a10.57,10.57,0,0,0,.67,1.4,1.27,1.27,0,0,0,.33-1.14c-.6-2.23-1.23-4.44-1.86-6.66a8.22,8.22,0,0,1-.43-4.45,4,4,0,0,0-.52-3,6.06,6.06,0,0,1,.29-6.76A14.63,14.63,0,0,0,169.86,199.73ZM404.4,116.51c3.69-2.24,4.64-2.25,8.67-.22a6.87,6.87,0,0,0,1.62.3l-1.09-3a22.19,22.19,0,0,0-2.26-.18A37.71,37.71,0,0,0,401,114.73c-2.14.63-4.31,1.13-6.45,1.75a5.86,5.86,0,0,0-1.32,1,4.49,4.49,0,0,0,3.56-.27,11.58,11.58,0,0,1,6.07-.84C403.4,116.38,404,116.46,404.4,116.51ZM308.22,60.25l.28-.34c-.77-.72-1.57-1.42-2.3-2.18s-1.56-1.77-2.33-2.66c-1,.16-1.87.33-2.74.43-2.91.33-5.78,1.23-8.77.5-.43-.1-1,.28-1.73.52l1,1.89a3.92,3.92,0,0,0,.95,0c2.68-1,5.57-.35,8.29-1a3,3,0,0,1,1.17.14,13.64,13.64,0,0,1,5,2.13A11.12,11.12,0,0,0,308.22,60.25Zm78.38,78.61c3.52,1.13,6.36.39,7.88-2-.84-1.4-1.7-2.84-2.59-4.35a35.3,35.3,0,0,1-2.05,3.69C389,137.29,387.43,137.59,386.6,138.86ZM185.41,222.28a40.94,40.94,0,0,1,3.67,2c1.07.74,1.33,2.31,2.62,3,1.29-3.15.45-6.23-2-7.54ZM477.3,342l4.24-2.64a34.61,34.61,0,0,1-3.58-2c-1.11-.81-1.41-2.4-2.62-3.33C474.19,337.63,474.91,340.45,477.3,342ZM291.94,475.59c-4.48.44-6.37,1-7.65,2.37,1.09.89,2,2,3.59,2.28,1.43-1.18,3.63-1.08,4.85-2.93ZM532.35,326.92c-.45-.95-.81-1.74-1.19-2.51a12.88,12.88,0,0,0-.78-1.47c-.84-1.26-1.36-1.29-2.87-.26.82,5.16,1.13,6.13,2.5,7.5C530.75,329.14,531.48,328.12,532.35,326.92ZM139.61,239.17c-.92-5.63-1.12-6.26-2.47-7.49-.77,1-1.53,2-2.3,3,.76,1.94,1.33,3.84,3,5.27ZM280.75,422.91c-3.22.06-6.14-.66-8.26,2.24.85,1.23.95,2.82,2.38,3.23Zm98.64-341.1c-1.64,1.36-3.86,1.26-5.14,3.23l.8,1.58c3.3-.29,6.29-1.17,7.77-2.31Zm10.43,323c3-.84,3.84-1.62,3.91-3.37s-.93-2.8-3-3.46c-.24,1.15-.49,2.29-.73,3.44S388.61,403.54,389.82,404.83ZM277.17,157.53c-2.82.54-4,1.41-4.17,3.06q-.28,2.25,2.84,3.55C277.27,160.48,277.57,159.08,277.17,157.53Zm179.59,66.79c-1-3-1.93-4-3.65-3.87-1.54.08-2.57,1.16-2.92,3,1.44.48,2.87.93,4.28,1.42A1.82,1.82,0,0,0,456.76,224.32ZM210.46,337a3.88,3.88,0,0,0,.06.87,12.14,12.14,0,0,0,.7,1.51c.78,1.39,1.85,2.06,3.05,1.79a3.22,3.22,0,0,0,2.7-2.84c-1.66-.55-3.21-1.07-4.78-1.57a2.44,2.44,0,0,0-.93-.09A3.38,3.38,0,0,0,210.46,337Zm326.25-156c-.17.33-.32.48-.3.6a27.51,27.51,0,0,0,1.07,4.83,4.63,4.63,0,0,0,3.6,3C540.58,186.75,538.16,182.06,536.71,180.93ZM302.38,476c-.86-1.63-1.35-3.3-2.86-4.29-1.52,1-1.33,2.22-.81,3.72Zm225-160.48c.21-1.35.77-2.51.44-4.09-1.4,1.34-3.09,1.92-4.13,3.42C524.72,316.12,525.89,316,527.36,315.48Zm-383.42-68.8c-1.69-1-2.88-1.1-4.1-.37-.59,2.21-.59,2.21-.06,3.51Zm223.78-156A3.8,3.8,0,0,0,368,87c-2-.65-2-.65-3.42-.34A10.81,10.81,0,0,0,367.72,90.69ZM504.17,361.27c1.37-.21,2.45-.53,3.08-1.77a7.07,7.07,0,0,0-3.48-2.45C503.69,358.57,503.35,359.83,504.17,361.27ZM163,200.46a3.06,3.06,0,0,0-3.22,2,7,7,0,0,0,3.33,1.77A4.65,4.65,0,0,0,163,200.46Zm89.89,251.7a4,4,0,0,0,2,3,4.69,4.69,0,0,0,2.06-3.24C254.76,451.58,254.76,451.58,252.92,452.16ZM412,106.91a4.69,4.69,0,0,0-2,3.35c1.35.31,2.54.59,3.7-.33A3.55,3.55,0,0,0,412,106.91Zm-135.9,3.26c-1.67-1.26-2.9-2.31-4.76-2.59a6.85,6.85,0,0,0-.15,1.45,1.08,1.08,0,0,0,.56.71A5.81,5.81,0,0,0,276.08,110.17Zm119.27,344.4c.47-.95.34-1.72-.47-2.16a4.14,4.14,0,0,0-4.14-.27A10.7,10.7,0,0,0,395.35,454.57Zm-232.2-116-.42-.13c-.37.59-.76,1.17-1.12,1.77a9,9,0,0,0-.69,1.25,1,1,0,0,0,.46,1.42,1.06,1.06,0,0,0,1.46-.79,3.21,3.21,0,0,0,.13-.7C163,340.48,163.09,339.54,163.15,338.6ZM504.61,222.45c1.54-1.95,1.54-1.95,1.47-3.56a1,1,0,0,0-1.47.16C503.9,220,504,221.11,504.61,222.45Z"/><path class="cls-1" d="M340.83,512.92c0-.6-.13-.87,0-1,1.08-2,2.09-4.12,3.32-6.07,2.52-4,2.92-8,.44-12.13a13.17,13.17,0,0,1-.6-1.43c.64.21,1,.22,1.24.43a9.17,9.17,0,0,1,2.63,8.5c-.43,2.26-.81,4.53-1.25,6.79a4,4,0,0,1-2.41,3C343.11,511.52,342.13,512.18,340.83,512.92Z"/><path class="cls-1" d="M469.7,144.37c-1.21-.34-2.37-.6-3.48-1-1.58-.54-3.13-1.2-4.71-1.76a14.1,14.1,0,0,1-8.78-8.24c-1.28-3.12.81-6.89,4.32-7.82,2.31-.61,4.62-1.18,6.93-1.78a3.93,3.93,0,0,0,1.14-.38c2-1.27,4.39-1.4,6.59-2.09a3.86,3.86,0,0,1,2.12-.14,36.89,36.89,0,0,1,6.49,2.35,6.94,6.94,0,0,1,3.22,8.22c-.24.85-.36,1.72-.63,2.56a9,9,0,0,1-1.08,2.63,16.88,16.88,0,0,1-6.69,5.58c-.59.25-1.15.58-1.75.77C472.19,143.68,471,144,469.7,144.37Z"/><path class="cls-1" d="M456.46,461.53c-.65-.72-1.16-1.31-1.68-1.87a8.1,8.1,0,0,0-1-1c-2.41-1.81-3.12-4.22-2.94-7.16.26-4.18,3.68-6.66,7.68-5.31a5,5,0,0,1,3.31,2.91,7.76,7.76,0,0,1,.74,2c.17,2,1.35,3.28,2.93,4.37s3,2.34,4.52,3.56a6.81,6.81,0,0,0,4.11,1.74,4.68,4.68,0,0,1,4.16,2.8,9.62,9.62,0,0,1,1.13,6.93c-.33,1.3-.49,2.64-.75,4.13.91.55,1.68,1.1,2.51,1.51a5.53,5.53,0,0,1,3.2,5.23,5.9,5.9,0,0,1-3,5.4q-4.32,2.58-8.55,5.29c-1.46.95-2.82,2.07-4.24,3.09a3.06,3.06,0,0,1-1.05.56c-3.26.69-6,2.61-9.06,3.76a27.8,27.8,0,0,1-8.3,2.17,3.41,3.41,0,0,0-.76.24,2.36,2.36,0,0,0-.38.8c-.24,2.65-1.81,4.65-3.61,6.31a24.46,24.46,0,0,1-5.53,3.74c-4.42,2.23-8.89,4.38-13.45,6.3A56.8,56.8,0,0,1,412,523a13,13,0,0,1-9.8-2.49c-.49.05-1,.09-1.59.16a7.16,7.16,0,0,1-3.74-.64,4.61,4.61,0,0,1-3-4.5,4.86,4.86,0,0,1,3.38-3.94c3.5-1.14,7-2.24,10.47-3.45a15.06,15.06,0,0,0,3.39-1.73,30.54,30.54,0,0,1,9.47-4.49c.68-.18,1.34-.43,1.83-.59.34-1.5.36-3,1-4.06,1.21-2.15,2.59-4.33,4.76-5.6a27.55,27.55,0,0,1,8.76-3.75,6,6,0,0,1,5.14,1.22l1.48,1.16a2.56,2.56,0,0,0,2.18-2.79,17.36,17.36,0,0,0-.11-2.16,8.08,8.08,0,0,1,1.26-5c2.29-3.75,5.23-6.64,9.76-7.47a13.21,13.21,0,0,0,1.95-.68c-1.44-1.28-3.4-1-4.24-2.56a6.82,6.82,0,0,1-.93-4.36C453.64,463.56,455.05,462.65,456.46,461.53Z"/><path class="cls-1" d="M184.38,431.11c.7-.39,1.25-.67,1.77-1s.88-.7,1.37-1c1.47-.79,7.19-.8,8.68.08,2.05,1.22,4.24,2.37,4.83,5a.69.69,0,0,0,.2.42c2.28,1.47,2.23,4.1,3.14,6.24.1.22.22.42.41.79.55.22,1.2.51,1.86.77a6.88,6.88,0,0,1,4.78,6.54,4.64,4.64,0,0,0,2.05,3.83c3.7,2.73,5.09,10,2,14.1a7.06,7.06,0,0,1-8.09,2.6,22.69,22.69,0,0,0-5.83-1.17,8,8,0,0,1-5.83-2.95,7.16,7.16,0,0,0-2.67-1.94,45.64,45.64,0,0,1-4.17-2.41,1.63,1.63,0,0,0-.6.2,9,9,0,0,1-7.93,1.78c-2.45-.5-4.75-1.71-7.21-2.36-.93-.24-1.75-1.37-2.32-2.28a5.52,5.52,0,0,0-2.11-2.2,7,7,0,0,1-3.67-4.79,17.27,17.27,0,0,0-1-2.42c-.66-1.54-1.34-3.07-2-4.61-.38-.88-.65-1.82-1.11-2.65a6.51,6.51,0,0,1,.11-6.83,21.86,21.86,0,0,1,7.23-7.21,19.34,19.34,0,0,1,6.24-3,9.86,9.86,0,0,1,7.35,1.24,5.14,5.14,0,0,1,2.1,3.38C184.16,429.84,184.23,430.38,184.38,431.11Z"/><path class="cls-1" d="M125.32,395.93a12.59,12.59,0,0,0,1.46,3.87c1,2.36,2,4.69,3,7a8.06,8.06,0,0,1,.46,1.36,5,5,0,0,1-2.12,5.21,5.34,5.34,0,0,1-6.08-.16,10.74,10.74,0,0,1-2.45-2.89,13,13,0,0,0-4.34-5,14.42,14.42,0,0,1-4.35-4,10.26,10.26,0,0,0-2-2.11c-2.5-2.12-3.66-5-4.34-8.05a16.73,16.73,0,0,1-.16-3.82,11.37,11.37,0,0,0-.81-4.67,24.76,24.76,0,0,1-1.6-8.9c0-1,0-2.08,0-3.12a2.24,2.24,0,0,0-1.26-2.15c-2.8-1.42-4.15-3.91-4.83-6.79a7,7,0,0,0-1.7-3.07c-1.48-1.77-2.83-3.64-4.22-5.48a2.71,2.71,0,0,1-.52-1.08c-.78-4.11-1.32-8.22,1-12.06,1-1.72,2.38-3,4.56-3,2.55-.06,4.64,1.23,5.21,3.7a9,9,0,0,0,2.55,4.71c1.56,1.53,1.85,3.68,2.06,5.75a8.86,8.86,0,0,0,1.12,3.61,8.13,8.13,0,0,1,.82,2.48,2.72,2.72,0,0,0,1.81,2.32,6.23,6.23,0,0,1,4.2,5.1c.07.39.27.75.35,1.14a3.71,3.71,0,0,0,2.75,3c3.08.87,4.55,3,5,6.05a7.41,7.41,0,0,0,1.89,4.32,1.46,1.46,0,0,1,.38.61c.54,2.18,2.2,3.48,3.8,4.78a9,9,0,0,1,3.33,8.28c-.18,2.11-1.32,3.06-3.51,3.06Z"/><path class="cls-1" d="M248.83,496.84a7.53,7.53,0,0,1-1.83,6,33.72,33.72,0,0,0-2.75,4.2,5.51,5.51,0,0,1-3.71,2.8c-3.13.68-6.21.86-8.76-1.62a5,5,0,0,0-3.07-1.21,7.63,7.63,0,0,1-5.49-3.05,5,5,0,0,0-4.08-2,13.62,13.62,0,0,1-7.37-2.53,12.14,12.14,0,0,1-4.58-5.69,4.7,4.7,0,0,0-3.26-3.21,20.54,20.54,0,0,1-8-4.75,16.93,16.93,0,0,1-5.55-10.61,5,5,0,0,1,2.89-5.28,3.87,3.87,0,0,1,2.8-.18,9,9,0,0,1,4.17,2.25,7.64,7.64,0,0,0,3.46,2c1.53.47,3,1,4.55,1.52a9.09,9.09,0,0,1,2,.85,8.84,8.84,0,0,0,5.11,1.79,1.62,1.62,0,0,1,.92.26c1.67,1.24,3.6,1.11,5.52,1.11,2.58,0,4.82,1.12,7,2.35a6,6,0,0,0,3.35,1c.72,0,1.44.06,2.15,0,3.21-.33,6.17.63,9.11,1.67a6.13,6.13,0,0,1,4.19,4.58C248.12,491.63,249.2,494.12,248.83,496.84Z"/><path class="cls-1" d="M215,429.66a10.71,10.71,0,0,1-1.44,1.38,13.68,13.68,0,0,1-3.09,1.73,3,3,0,0,1-3.63-1.13,43.08,43.08,0,0,1-3.6-5.9,25.64,25.64,0,0,1-2.64-10.33,14.84,14.84,0,0,1,2.77-9.43,6.5,6.5,0,0,1,7.41-2.37,14.77,14.77,0,0,1,2.86,1.2,7.8,7.8,0,0,1,2.48,2.14,6.43,6.43,0,0,0,2.87,2.41c.44.2.86.42,1.29.64a6.15,6.15,0,0,1,3.52,7.13,22.56,22.56,0,0,0,0,8.07,4.82,4.82,0,0,1-.54,3.69c-1.37,2.11-3.22,2.73-6.31,1.71A16.44,16.44,0,0,1,215,429.66Z"/><path class="cls-1" d="M144.44,404l1.7-1.43a6.53,6.53,0,0,1,10.72,3.18,25.81,25.81,0,0,1,.83,4.71,7.34,7.34,0,0,1-1.7,5.35,5.34,5.34,0,0,1-5.29,2.12,11.23,11.23,0,0,0-4.51,0,2.94,2.94,0,0,1-1.41-.08,4.52,4.52,0,0,0-3.63.73,6.4,6.4,0,0,1-9.63-3.68,9.78,9.78,0,0,1-.42-5.18,18.85,18.85,0,0,0,.22-4.05c0-4.56,2.72-6.15,6.13-6.61,2.37-.32,4.3,1,5.68,2.94C143.54,402.55,143.89,403.15,144.44,404Z"/><path class="cls-1" d="M120.07,173.45c.48.35.91.68,1.36,1,.87.56,1.78,1.07,2.63,1.66a4,4,0,0,1,1.87,2.69,12.42,12.42,0,0,0,1.7,4.44c1.38,2.42,1.43,5,1.27,7.68a4,4,0,0,1-.07.48c-.68,2.74-5.09,6.37-7.94,6.47-1.6.06-3.2,0-4.8,0A14,14,0,0,0,114,198a2.72,2.72,0,0,0-2.26,1.89c-.63,1.72-1.3,3.44-2,5.12-.67,1.53-1.41,3-2.18,4.52a5,5,0,0,1-1.16,1.5,27.47,27.47,0,0,0-5.11,6,46.16,46.16,0,0,1-3.9,4.51,2.66,2.66,0,0,1-.35.32c-1.39,1.09-5.48,1.67-7.13,1A5.23,5.23,0,0,1,86.28,218a22.09,22.09,0,0,1,.59-7.37,103.09,103.09,0,0,1,6.56-17.46c.92-1.86,2.1-3.58,3.14-5.38,1.77-3.07,3.9-5.68,7.87-6,.51-1,1.07-2,1.51-3a68.65,68.65,0,0,1,6.35-11.52,34.76,34.76,0,0,1,10-9.85,4.75,4.75,0,0,1,3.33-1.1,4,4,0,0,1,2.51,6.49,18.81,18.81,0,0,1-2.29,2.44,35,35,0,0,0-5.39,7.29A6.93,6.93,0,0,0,120.07,173.45Z"/><path class="cls-1" d="M161.42,143.34c1.71.28,3.21.47,4.68.79,3,.64,5.11,2.18,5.62,5.41a15.49,15.49,0,0,0,.6,1.82,6.06,6.06,0,0,1-1.65,6.38,6.42,6.42,0,0,1-6.47,1.49,5.56,5.56,0,0,1-3.38-2.91c-1-1.88-2.68-2.59-4.54-3.41l-2.88,1.92c0,.28,0,.5,0,.58,2.83,2.6,2.19,5.7.94,8.62a18.67,18.67,0,0,1-5,6.94,6,6,0,0,1-4.81,1.67,12,12,0,0,0-4.72.42l-1.63.4a7.1,7.1,0,0,1-8.49-8.85,42.75,42.75,0,0,1,1.48-4.3,4.18,4.18,0,0,0,.06-2.79,41.41,41.41,0,0,1-.91-4.43,2.67,2.67,0,0,0-1.25-1.92c-3.57-2.45-4.2-4.95-2.86-9.06,1.2-3.68,3.48-6.6,5.94-9.43a5.49,5.49,0,0,1,2.14-1.49,24.55,24.55,0,0,1,5.06-1.4,7.83,7.83,0,0,1,8,3.74,3.16,3.16,0,0,0,2.24,1.6,9.87,9.87,0,0,0,2.13.31c2.08-.15,3.9.65,5.76,1.38a5.07,5.07,0,0,1,3.29,3.82C161,141.48,161.18,142.33,161.42,143.34Z"/><path class="cls-1" d="M221.22,112.3l5.8,2.75,4.18-.82c2-.39,4.07-.82,6.12-1.13a8.52,8.52,0,0,1,2.85,0,3.33,3.33,0,0,1,2.85,2.58,3.82,3.82,0,0,1-1.23,3.9,26,26,0,0,1-15.09,6.61,10,10,0,0,1-6.23-1.27,5.17,5.17,0,0,0-3.13-.94,6.08,6.08,0,0,1-4.05-1.16,6.41,6.41,0,0,0-4-1.25,5.53,5.53,0,0,1-5.67-3.91,6.69,6.69,0,0,1,2.22-7.32c1-.72,2-1.34,3-2l.21-.12c1.4-.72,7.56-.93,8.93-.12a8.47,8.47,0,0,1,2.2,2.11A11.54,11.54,0,0,1,221.22,112.3Z"/><path class="cls-1" d="M337.21,329.72c.78-.18,1.62-.44,2.6-.75l1.68,1.6a15.67,15.67,0,0,0,1.86-5.17,3.22,3.22,0,0,1,2.28-2.73l1.89,1.25a5.11,5.11,0,0,0,2.13-4.3c0-1.26.11-1.26,1.23-2.16a3.75,3.75,0,0,1,1.95,4.2c-.36,2.31-.3,5.09-3.31,6.14l-2.12-.89a23.46,23.46,0,0,1-.66,2.63,14.14,14.14,0,0,1-1.43,3.25c-1.07,1.55-2.3,1.63-3.88.49a7.12,7.12,0,0,1-.56-.46c-.83.27-1,1.05-1.17,1.68-1,3-3.31,5-5.54,7.09-1,.92-1.8.81-3-.26-2.41-2.24-4.76-4.54-5.59-7.91a3.89,3.89,0,0,0-.45-.77c-.46.34-.86.68-1.29,1a2.24,2.24,0,0,1-3.05-.28,6.56,6.56,0,0,1-1.9-3.79c-.13-.84-.35-1.68-.57-2.68l-2.3,1c-.59-.44-1.46-.77-1.78-1.38-1.25-2.38-2-4.89-.88-7.58.28-.68.61-1.32,1.49-1.38,1,.2,1.12,1,1.15,1.83a7.2,7.2,0,0,0,2,4.61L320,322.7a2.82,2.82,0,0,1,2.31,2.52,24.39,24.39,0,0,0,2,5.45c1.12-1.82,1.12-1.82,2.95-2.43-1.33-1.75-2.65-3.44-3.93-5.16a62.35,62.35,0,0,0-6.45-7.7,45,45,0,0,0-6.32-5.13c-4.59-3.05-9.18-6.09-13.48-9.56a23.37,23.37,0,0,1-3.87-4.22,38.66,38.66,0,0,1-6.42-11.71c-1.18-3.73-2.67-7.39-3.07-11.31-.49-4.88-.64-9.75,1.74-14.3a9.9,9.9,0,0,0,.45-1.11c1.58-4.42,4.66-7.54,8.54-10a31.66,31.66,0,0,1,11.42-4.11c.31,0,.62-.11,1.24-.24a7.62,7.62,0,0,0-1.14-1c-2.07-1.1-2.74-3.08-3.11-5.14a3.28,3.28,0,0,1,3.84-3.5,2.75,2.75,0,0,1,2,2.66c0,.47-.16.95-.13,1.42a4.16,4.16,0,0,0,.37,2,3,3,0,0,1,.44,3.36c1.1.59,2.15.29,3.15.38l3.41.28a8.73,8.73,0,0,0-.95-1.58c-2-2-2.41-4.41-2.23-7.06a4.28,4.28,0,0,1,1.29-2.76,2.92,2.92,0,0,1,3.11-.68,2.46,2.46,0,0,1,1.77,2.32c.16,1.42.43,2.85.47,4.28a3.67,3.67,0,0,0,1.48,3.09,8,8,0,0,1,1.18,1.33c-.09,1.39-1.17,1.79-2.09,2.49,1.5,1.08,3,2,4.29,3.13a19.83,19.83,0,0,1,5.78,7.51c.89,2.12,1.72,4.26,2.73,6.75a15.3,15.3,0,0,0,.85-1.44c.43-1,.81-2.08,1.21-3.13a22.28,22.28,0,0,1,9.69-11.76,6.86,6.86,0,0,0,.94-.85l-1.77-2.15c.18-1.55,1.62-1.86,2.46-3.1.19-1.52.41-3.33.64-5.15a8,8,0,0,1,.23-1.64,2.83,2.83,0,0,1,4.54-1.14,4.13,4.13,0,0,1,1.45,2.93c.17,2.65-.21,5.11-2.26,7a8.26,8.26,0,0,0-.85,1.22c1.15.69,2.14,0,3.12,0s2,0,3.31,0a4.1,4.1,0,0,1,.64-4,3,3,0,0,0,.32-1.6c0-.39-.12-.79-.14-1.19a2.71,2.71,0,0,1,1.54-3,3.39,3.39,0,0,1,3.48,1,3.3,3.3,0,0,1,.76,3.13,6.64,6.64,0,0,1-2.88,4.25c-.4.24-.77.51-1.16.76.16.23.24.45.33.46a27.26,27.26,0,0,1,9.83,2.94c5,2.5,9.06,6,10.92,11.5.23.68.59,1.31.87,2a19.84,19.84,0,0,1,1.5,6.73A40.62,40.62,0,0,1,380,281.75a52.84,52.84,0,0,1-4.29,10.13,37.9,37.9,0,0,1-12.27,12.88c-3.53,2.34-7.06,4.67-10.51,7.12a37.16,37.16,0,0,0-7.79,7.75c-2.63,3.41-5.3,6.8-7.94,10.09a10.87,10.87,0,0,0-1.95,1,3.72,3.72,0,0,1-4.85,0,7.31,7.31,0,0,0-1.64-.63c.39,1.89,1.59,2.74,2.67,3.63a1.92,1.92,0,0,0,2.82,0A6.93,6.93,0,0,0,337.21,329.72Zm-4.51-53.78a19,19,0,0,1-2.6-1.95,56,56,0,0,1-4.25-4.86,20.09,20.09,0,0,0-13.53-8.25c-4.91-.72-12.33,1.55-14.17,8.73-.1.39-.2.78-.29,1.17a26,26,0,0,0-.59,8.76,19.24,19.24,0,0,0,2.77,8.29c3.72,5.73,8.5,10.56,13,15.64a11.1,11.1,0,0,0,1.25,1.12c1.87,1.61,3.85,3.11,5.61,4.84,4.29,4.19,8.41,8.53,11.06,14,.43.88.85,1.93,2.23,2.29a19.35,19.35,0,0,0,1.82-2.7c1.92-4.23,5-7.61,8.13-10.89,2.64-2.75,5.67-5.13,8.5-7.72a39.64,39.64,0,0,0,3-3.06c1.81-2,3.46-4.19,5.36-6.12a48.11,48.11,0,0,0,6.5-8.85,9.6,9.6,0,0,0,1.19-2.61c1.14-4.71,1.57-9.43-.12-14.14-.79-2.21-1.65-4.4-3.59-5.83a13.75,13.75,0,0,0-10.78-2.93A20.39,20.39,0,0,0,340.75,268c-.83,1-1.49,2.09-2.32,3.05C336.81,272.87,335.26,274.81,332.7,275.94Z"/><path class="cls-1" d="M332.79,252.93c-2.57-1.66-5-3.2-6.46-6a23.71,23.71,0,0,1-2.6-9.87,8.14,8.14,0,0,1,1.61-5.16c1.93-2.76,4.31-3,6.86-.79a7,7,0,0,0,.68.46l.87-.73a4,4,0,0,1,6.25.59,7.9,7.9,0,0,1,1.94,5.29,22.58,22.58,0,0,1-2.64,10.33A15.58,15.58,0,0,1,332.79,252.93Zm-.06-8.66c2-3,2-6.19.1-9.39A8.85,8.85,0,0,0,332.73,244.27Z"/><path class="cls-1" d="M299.86,241.73a8.65,8.65,0,0,1-.63,1.82c-.92,1.51-2.35,1.61-3.58.33a3.52,3.52,0,0,1-.61-4.39,2.25,2.25,0,0,1,4.06,0A11.32,11.32,0,0,1,299.86,241.73Z"/><path class="cls-1" d="M306.75,316a8.39,8.39,0,0,1,.88-1.8,1.45,1.45,0,0,1,2.51.38,32.13,32.13,0,0,1,1.36,3.53,4.51,4.51,0,0,1,.1,1.87,1.63,1.63,0,0,1-1.33,1.49,1.57,1.57,0,0,1-1.81-.85C307.81,319.07,307.31,317.49,306.75,316Z"/><path class="cls-1" d="M371.16,241.4c-.06,1.61-1.55,3.38-2.84,3.36s-2.5-1.79-2.32-3.62a3.78,3.78,0,0,1,.06-.47c.35-1.59,1.48-2.58,2.77-2.43A3,3,0,0,1,371.16,241.4Z"/><path class="cls-1" d="M354,318.93c.08-.3.19-.85.37-1.36a27.07,27.07,0,0,1,1.16-2.83c.23-.44.7-1,1.09-1.05a3.66,3.66,0,0,1,1.65.66c.17.1.25.4.33.62.43,1.23-.65,5.13-1.68,6a1.57,1.57,0,0,1-1.75.37C354.23,320.92,354,320.1,354,318.93Z"/><path class="cls-1" d="M302.77,314.32c-1.42-1.23-1.83-2.29-1.36-3.28a2,2,0,0,1,2.27-.83,1.84,1.84,0,0,1,1.54,1.83C305.12,313.45,304.18,314.06,302.77,314.32Z"/><path class="cls-1" d="M360.7,312a1.89,1.89,0,1,1,3.77.09c0,1.24-.79,2.15-1.77,2.13A2.1,2.1,0,0,1,360.7,312Z"/><path class="cls-1" d="M384.14,252.67a2,2,0,0,1-2,2.17,1.91,1.91,0,0,1-1.66-2,2.16,2.16,0,0,1,2.11-2.15C383.59,250.74,384.18,251.47,384.14,252.67Z"/><path class="cls-1" d="M281.54,252.57c0-1.19.62-1.89,1.68-1.87a2.18,2.18,0,0,1,2,2.25,1.86,1.86,0,0,1-1.76,1.89A2.05,2.05,0,0,1,281.54,252.57Z"/><path class="cls-1" d="M282.89,261.44a1.87,1.87,0,1,1-1.85-2.06A2,2,0,0,1,282.89,261.44Z"/><path class="cls-1" d="M386.51,261.33a2,2,0,0,1-1.76,2.13,1.94,1.94,0,0,1-1.95-1.94,2,2,0,0,1,1.77-2.14A1.94,1.94,0,0,1,386.51,261.33Z"/><path class="cls-1" d="M370.63,307.34a2.12,2.12,0,0,1-1.79,2.18,2,2,0,0,1,0-4.07A1.86,1.86,0,0,1,370.63,307.34Z"/><path class="cls-1" d="M297.11,305.5a1.92,1.92,0,0,1,1.61,2,2,2,0,0,1-1.9,2,2.21,2.21,0,0,1-1.76-2.42A2.06,2.06,0,0,1,297.11,305.5Z"/><path class="cls-1" d="M378.31,245.8a2.06,2.06,0,0,1-1.79,2.17,1.87,1.87,0,0,1-1.87-1.79,2,2,0,0,1,1.78-2.15A1.88,1.88,0,0,1,378.31,245.8Z"/><path class="cls-1" d="M289.09,244a2,2,0,0,1,2,2,1.9,1.9,0,0,1-1.71,1.95,2,2,0,0,1-2-2A1.89,1.89,0,0,1,289.09,244Z"/><path class="cls-1" d="M375.28,303.67c-1.38,1.19-2,1.38-2.77.8a1.44,1.44,0,0,1-.54-1.7,1.6,1.6,0,0,1,1.64-1.15C374.79,301.68,375.22,302.47,375.28,303.67Z"/><path class="cls-1" d="M292,301.6a1.77,1.77,0,0,1,1.78,1.56,1.57,1.57,0,0,1-1.63,1.62,1.67,1.67,0,0,1-1.66-1.65A1.6,1.6,0,0,1,292,301.6Z"/><path class="cls-1" d="M314.27,295.88a5.62,5.62,0,0,1-4.09-1.46,38.48,38.48,0,0,1-7.56-9.19,16.05,16.05,0,0,1-1.77-10.17c.09-.71.25-1.42.41-2.12.92-4.16,3.57-6.84,7.37-8.49a6,6,0,0,1,5.09.42,18.82,18.82,0,0,1,6.41,5.65c1.21,1.52.66,3.09-1.11,3.9a2.58,2.58,0,0,1-.68.22c-3.13.52-4.63,2.8-5.37,5.49a18.59,18.59,0,0,0-.66,9c.36,1.63.93,3.21,1.4,4.82C313.88,294.51,314.05,295.1,314.27,295.88Z"/><path class="cls-1" d="M351.59,295.66c.55-1.93,1.07-3.6,1.49-5.29a17.93,17.93,0,0,0-1.06-11.9,6.36,6.36,0,0,0-4.77-3.93c-2.39-.49-3.08-2.48-1.48-4.3a28.79,28.79,0,0,1,4.88-4.55c3.62-2.56,6.28-1.93,9.61.61s4.37,6,4.7,9.84a15.91,15.91,0,0,1-1.83,9A36.26,36.26,0,0,1,355,294.8,3.89,3.89,0,0,1,351.59,295.66Z"/><path class="cls-1" d="M333.09,283.94c.41-.32.94-.79,1.52-1.17a9.16,9.16,0,0,1,2.27-1.28,4.13,4.13,0,0,1,5.2,2.27,8,8,0,0,1,.32,6.71,16.83,16.83,0,0,1-1.4,2.78c-1.71,2.87-3.47,5.72-5.22,8.57a4.32,4.32,0,0,1-3.32,2.41,5.44,5.44,0,0,1-2.58-2.45c-1.7-2.78-3.44-5.55-5.1-8.36-1.22-2.07-2.4-4.19-2-6.74a10.31,10.31,0,0,1,.63-2.53,4.58,4.58,0,0,1,7.34-1.73l1.85,1.47C332.67,283.93,332.77,283.91,333.09,283.94Z"/><path class="cls-1" d="M343,299.19a2.88,2.88,0,0,1,.46-2.6,12.17,12.17,0,0,0,1.38-6.46,24.14,24.14,0,0,0-.49-5.93,4.4,4.4,0,0,0-2.22-2.92c-1.94-1-2-2.19-.45-3.74s3.46-1.85,5.35-.41a8.38,8.38,0,0,1,3.38,8.39,29.78,29.78,0,0,1-2.69,8.63,33.17,33.17,0,0,1-2.77,4.44A1.38,1.38,0,0,1,343,299.19Z"/><path class="cls-1" d="M322.74,299.11a1.25,1.25,0,0,1-1.83-.3,15.9,15.9,0,0,1-1.86-2.48,27.82,27.82,0,0,1-3.88-11.94c-.2-3.58,1.19-6,4.52-7.73a3.9,3.9,0,0,1,5.27,2.19,1.69,1.69,0,0,1-.56,1.93,4,4,0,0,1-1,.6,3.39,3.39,0,0,0-2,2.56,26.28,26.28,0,0,0-.55,3.52c-.09,1.27,0,2.55,0,3.82a10.27,10.27,0,0,0,1.15,4.83C322.43,297,323.05,297.91,322.74,299.11Z"/><path class="cls-1" d="M331.1,309.6H335c1.37,1.19,1.44,2.73.05,4.33s-3.18,1.63-4.39-.17a6.58,6.58,0,0,1-.84-2.68C329.66,310.33,330.14,309.73,331.1,309.6Z"/><path class="cls-1" d="M332.65,283c-2.26-2-2.52-2.8-1.68-5a3.61,3.61,0,0,1,2.94-.39,1.57,1.57,0,0,1,1.43,1.85C335.08,281.07,334.46,282.47,332.65,283Z"/><path class="cls-1" d="M332.88,317.84a2,2,0,0,1,2.1,1.8A2.42,2.42,0,0,1,332.8,322a2.48,2.48,0,0,1-2.1-2.22A2,2,0,0,1,332.88,317.84Z"/><path class="cls-1" d="M351,300a2.2,2.2,0,0,1-2,2.25,2.51,2.51,0,0,1-2.07-2.28,2.44,2.44,0,0,1,2.26-2.09A2.06,2.06,0,0,1,351,300Z"/><path class="cls-1" d="M318.81,300.1a2.46,2.46,0,0,1-2.17,2.17,2.22,2.22,0,0,1-1.92-2.34,2,2,0,0,1,1.94-2A2.41,2.41,0,0,1,318.81,300.1Z"/><path class="cls-1" d="M326.57,306a1.94,1.94,0,0,1-2,2,2,2,0,0,1-1.8-2.37c.1-1.26.91-2.09,1.93-2A2.13,2.13,0,0,1,326.57,306Z"/><path class="cls-1" d="M342.88,305.82a2,2,0,0,1-2,2.12,1.91,1.91,0,0,1-1.72-1.92,2.3,2.3,0,0,1,2.08-2.44A2,2,0,0,1,342.88,305.82Z"/><path class="cls-1" d="M339,277.22a1.76,1.76,0,0,1-1.39,1.91,1.87,1.87,0,0,1-1.74-1.88,1.58,1.58,0,0,1,1.45-1.59A1.51,1.51,0,0,1,339,277.22Z"/><path class="cls-1" d="M327.78,279.15a2,2,0,0,1-.88-2.77,1.51,1.51,0,0,1,1.85-.64,1.53,1.53,0,0,1,1,1.45C329.85,278.13,329.33,278.65,327.78,279.15Z"/><path class="cls-1" d="M323.64,273.23c-.1-.51-.38-1.07-.25-1.51a2.12,2.12,0,0,1,1.05-1.08,1.06,1.06,0,0,1,1,.42,2.27,2.27,0,0,1,.15,1.51C325.33,273.19,324.73,273.48,323.64,273.23Z"/><path class="cls-1" d="M341.48,273.41c-1.65-1-1.65-1-.81-2.69a1.09,1.09,0,0,1,1.53.62A1.44,1.44,0,0,1,341.48,273.41Z"/></g></g></svg>